<svg width="140" height="40" viewBox="0 0 140 40" fill="none" xmlns="http://www.w3.org/2000/svg">
<path d="M50.2497 9.45361V31.2376H60.308C64.9975 31.2376 67.4892 28.8421 67.5159 25.053C67.5159 22.6304 66.3865 20.7862 64.1733 19.7807V19.7341C65.8446 18.6781 66.5773 17.3581 66.5773 15.3237C66.5773 12.2334 64.5282 9.45361 60.0752 9.45361H50.2497ZM71.0532 9.45361V31.2376H73.5715V22.5178L73.3121 22.2538H78.3985C81.2259 22.2538 82.8515 23.2865 83.8855 25.515L86.5489 31.2414H89.3726L86.1216 24.4357C85.4156 22.9021 84.332 21.9432 83.317 21.5122V21.4618C85.6713 20.8367 87.6059 18.7286 87.6059 15.8789C87.6059 11.5889 84.332 9.4575 80.4208 9.4575L71.0532 9.45361ZM91.994 9.45361V31.2376H94.5162V9.45361H91.994ZM106.879 9.45361L97.4543 31.2376H100.209L102.472 25.9886L102.331 25.7246H114.061L113.919 25.9886L116.182 31.2376H118.937L109.539 9.45361H106.879ZM121.677 9.45361V31.2376H124.195V22.5178L123.936 22.2538H129.026C131.853 22.2538 133.479 23.2865 134.513 25.515L137.173 31.2414H140L136.749 24.4357C136.043 22.9021 134.959 21.9432 133.944 21.5122V21.4618C136.299 20.8367 138.233 18.7286 138.233 15.8789C138.233 11.5889 134.959 9.4575 131.048 9.4575L121.677 9.45361ZM52.5353 11.8762H59.8119C62.544 11.8762 63.9826 13.0021 63.9826 15.3005C63.9826 17.2416 62.8722 18.8023 59.8119 18.8023H52.5353L52.7948 18.5383V12.1402L52.5353 11.8762ZM73.3121 11.8762H80.4475C83.0842 11.8762 85.0417 12.9788 85.0646 15.8518C85.0646 18.154 83.2521 19.8079 80.1652 19.8079H73.3083L73.5677 19.5439V12.1402C73.5715 12.1402 73.3121 11.8762 73.3121 11.8762ZM123.959 11.8762H131.094C133.708 11.8762 135.688 12.9788 135.688 15.8518C135.688 18.154 133.899 19.8079 130.812 19.8079H123.955L124.214 19.5439V12.1402C124.218 12.1402 123.959 11.8762 123.959 11.8762ZM108.2 12.113H108.249L108.883 14.2949L112.652 23.0419L112.912 23.3059H103.514L103.773 23.0419L107.543 14.2949L108.2 12.113ZM52.5124 21.2249H60.2889C63.4445 21.2249 64.906 22.708 64.906 25.0335C64.906 27.4561 63.5857 28.7956 60.3118 28.7956H52.5124L52.7719 28.5316V21.4851L52.5124 21.2249Z" fill="#6B7280"/>
<path d="M10.8571 0.000488281C9.23418 0.000488281 7.89623 1.36179 7.89623 3.01304V6.84254H15.19V3.01304C15.19 1.36179 13.8683 0.000488281 12.2454 0.000488281H10.8571ZM27.0846 0.000488281C25.4617 0.000488281 24.1237 1.36179 24.1237 3.01304V23.3533H31.4175V3.01304C31.4175 1.36179 30.0958 0.000488281 28.4729 0.000488281H27.0846ZM7.89623 16.6467V36.987C7.89623 38.6383 9.21794 39.9996 10.8571 39.9996H12.2454C13.8683 39.9996 15.2062 38.6383 15.2062 36.987V16.6467H7.89623ZM24.1229 33.1575V36.987C24.1229 38.6383 25.4617 39.9996 27.0838 39.9996H28.4721C30.095 39.9996 31.4329 38.6383 31.4329 36.987V33.1575C31.4337 33.1575 24.1229 33.1575 24.1229 33.1575Z" fill="#6B7280"/>
<path d="M2.96092 8.03369C1.33801 8.03369 6.10352e-05 9.37848 6.10352e-05 11.0462V12.4588C6.10352e-05 14.11 1.32177 15.4713 2.96092 15.4713H22.9522V8.03369H2.96092ZM32.5882 8.03369V15.4721H36.352C37.9749 15.4721 39.3129 14.1273 39.3129 12.4596V11.0471C39.3129 9.3793 37.9749 8.03452 36.352 8.03452H32.5882V8.03369ZM2.96092 24.5445C1.33801 24.5445 6.10352e-05 25.8893 6.10352e-05 27.557V28.9695C6.10352e-05 30.6208 1.32177 31.9821 2.96092 31.9821H6.72472V24.5445H2.96092ZM16.3607 24.5445V31.9829H36.352C37.9749 31.9829 39.3129 30.6208 39.3129 28.9704V27.5578C39.3129 25.8901 37.9749 24.5453 36.352 24.5453L16.3607 24.5445Z" fill="#6B7280"/>
</svg>
