<svg width="512" height="512" viewBox="0 0 512 512" fill="none" xmlns="http://www.w3.org/2000/svg">
<g clip-path="url(#clip0_799_1355)">
<path d="M503.5 204.6L502.8 202.8L433.1 21.0199C431.7 17.4499 429.2 14.4299 425.9 12.3799C423.5 10.8299 420.8 9.86489 417.9 9.56989C415 9.27489 412.2 9.65289 409.5 10.6799C406.8 11.6999 404.4 13.3399 402.4 15.4599C400.5 17.5799 399.1 20.1299 398.3 22.8999L351.3 166.9H160.8L113.7 22.8999C112.9 20.1299 111.5 17.5899 109.6 15.4699C107.6 13.3499 105.2 11.7199 102.5 10.6999C99.86 9.67489 96.98 9.29489 94.12 9.58689C91.26 9.87789 88.51 10.8299 86.08 12.3799C82.84 14.4299 80.33 17.4499 78.92 21.0199L9.26703 202.8L8.54303 204.6C-1.48397 230.8 -2.71997 259.6 5.02303 286.6C12.77 313.5 29.07 337.3 51.47 354.2L51.74 354.4L52.33 354.8L158.3 434.3L210.9 474L242.9 498.2C246.6 500.1 251.2 502.5 255.9 502.5C260.6 502.5 265.2 500.1 268.9 498.2L300.9 474L353.5 434.3L460.2 354.4L460.5 354.1C482.9 337.2 499.2 313.5 506.1 286.6C514.7 259.6 513.5 230.8 503.5 204.6Z" fill="#6B7280"/>
</g>
<defs>
<clipPath id="clip0_799_1355">
<rect width="512" height="512" fill="white"/>
</clipPath>
</defs>
</svg>
