<svg width="618" height="233" viewBox="0 0 618 233" fill="none" xmlns="http://www.w3.org/2000/svg">
<rect x="66.7944" y="30.2462" width="92.1681" height="172.508" rx="13.5133" fill="#ECFCCB" stroke="#65A30D" stroke-width="1.80177"/>
<circle cx="3.57592" cy="3.57592" r="2.67503" transform="matrix(-1 0 0 1 116.454 38.8082)" stroke="#65A30D" stroke-width="1.80177"/>
<path d="M91.5601 42.0062H102.731" stroke="#65A30D" stroke-width="1.80177" stroke-linecap="round" stroke-linejoin="round"/>
<path d="M123.026 42.0062L134.197 42.0062" stroke="#65A30D" stroke-width="1.80177" stroke-linecap="round" stroke-linejoin="round"/>
<path d="M142.529 53.7923H83.2276C78.418 53.7923 74.519 57.6913 74.519 62.5009V178.659C74.519 183.469 78.418 187.368 83.2276 187.368H142.529C147.339 187.368 151.238 183.469 151.238 178.659V62.5009C151.238 57.6913 147.339 53.7923 142.529 53.7923Z" fill="#F9FAFB" stroke="#65A30D" stroke-width="1.80177"/>
<path d="M103.334 99.2587C101.574 99.2587 100.123 100.71 100.123 102.47V106.553H108.034V102.47C108.034 100.71 106.6 99.2587 104.84 99.2587H103.334ZM120.936 99.2587C119.176 99.2587 117.725 100.71 117.725 102.47V124.155H125.636V102.47C125.636 100.71 124.203 99.2587 122.442 99.2587H120.936ZM100.123 117.005V138.69C100.123 140.45 101.556 141.902 103.334 141.902H104.84C106.6 141.902 108.052 140.45 108.052 138.69V117.005H100.123ZM117.724 134.607V138.69C117.724 140.45 119.176 141.902 120.935 141.902H122.441C124.202 141.902 125.653 140.45 125.653 138.69V134.607C125.654 134.607 117.724 134.607 117.724 134.607Z" fill="#82C91E"/>
<path d="M94.7688 107.819C93.0084 107.819 91.5571 109.252 91.5571 111.03V112.536C91.5571 114.296 92.9908 115.748 94.7688 115.748H116.453V107.819H94.7688ZM126.906 107.819V115.749H130.988C132.749 115.749 134.2 114.315 134.2 112.537V111.031C134.2 109.253 132.749 107.819 130.988 107.819H126.906V107.819ZM94.7688 125.421C93.0084 125.421 91.5571 126.854 91.5571 128.632V130.138C91.5571 131.899 92.9908 133.35 94.7688 133.35H98.8514V125.421H94.7688ZM109.304 125.421V133.351H130.988C132.749 133.351 134.2 131.899 134.2 130.139V128.633C134.2 126.855 132.749 125.421 130.988 125.421L109.304 125.421Z" fill="#A3E635"/>
<rect x="459.037" y="30.2462" width="92.1681" height="172.508" rx="13.5133" fill="#ECFCCB" stroke="#65A30D" stroke-width="1.80177"/>
<circle cx="3.57592" cy="3.57592" r="2.67503" transform="matrix(-1 0 0 1 508.696 38.8082)" stroke="#65A30D" stroke-width="1.80177"/>
<path d="M483.802 42.0062H494.973" stroke="#65A30D" stroke-width="1.80177" stroke-linecap="round" stroke-linejoin="round"/>
<path d="M515.268 42.0062L526.439 42.0062" stroke="#65A30D" stroke-width="1.80177" stroke-linecap="round" stroke-linejoin="round"/>
<path d="M534.771 53.7923H475.47C470.66 53.7923 466.761 57.6913 466.761 62.5009V178.659C466.761 183.469 470.66 187.368 475.47 187.368H534.771C539.581 187.368 543.48 183.469 543.48 178.659V62.5009C543.48 57.6913 539.581 53.7923 534.771 53.7923Z" fill="#F9FAFB" stroke="#65A30D" stroke-width="1.80177"/>
<path d="M495.576 99.2587C493.816 99.2587 492.365 100.71 492.365 102.47V106.553H500.276V102.47C500.276 100.71 498.843 99.2587 497.082 99.2587H495.576ZM513.178 99.2587C511.418 99.2587 509.967 100.71 509.967 102.47V124.155H517.878V102.47C517.878 100.71 516.445 99.2587 514.684 99.2587H513.178ZM492.365 117.005V138.69C492.365 140.45 493.798 141.902 495.576 141.902H497.082C498.843 141.902 500.294 140.45 500.294 138.69V117.005H492.365ZM509.966 134.607V138.69C509.966 140.45 511.418 141.902 513.178 141.902H514.683C516.444 141.902 517.895 140.45 517.895 138.69V134.607C517.896 134.607 509.966 134.607 509.966 134.607Z" fill="#82C91E"/>
<path d="M487.011 107.819C485.251 107.819 483.799 109.252 483.799 111.03V112.536C483.799 114.296 485.233 115.748 487.011 115.748H508.696V107.819H487.011ZM519.148 107.819V115.749H523.23C524.991 115.749 526.442 114.315 526.442 112.537V111.031C526.442 109.253 524.991 107.819 523.23 107.819H519.148V107.819ZM487.011 125.421C485.251 125.421 483.799 126.854 483.799 128.632V130.138C483.799 131.899 485.233 133.35 487.011 133.35H491.094V125.421H487.011ZM501.546 125.421V133.351H523.23C524.991 133.351 526.442 131.899 526.442 130.139V128.633C526.442 126.855 524.991 125.421 523.23 125.421L501.546 125.421Z" fill="#A3E635"/>
<path d="M326.826 52.5369H290.791C283.327 52.5369 277.277 58.5871 277.277 66.0502V102.086C277.277 109.549 283.327 115.599 290.791 115.599H326.826C334.289 115.599 340.339 109.549 340.339 102.086V66.0502C340.339 58.5871 334.289 52.5369 326.826 52.5369Z" fill="#ECFCCB" stroke="#65A30D" stroke-width="1.80177"/>
<path d="M303.174 76.7395V85.8088C303.174 88.9189 305.696 91.4401 308.806 91.4401C311.916 91.4401 314.437 88.9189 314.437 85.8088V76.7395C314.437 73.6295 311.916 71.1082 308.806 71.1082C305.696 71.1082 303.174 73.6295 303.174 76.7395Z" stroke="#65A30D" stroke-width="1.80177"/>
<rect x="299.456" y="81.7487" width="18.705" height="13.6222" rx="1.50148" fill="#A3E635" stroke="#65A30D" stroke-width="1.80177"/>
<circle cx="399.784" cy="84.0726" r="6.01987" fill="#BEF264"/>
<circle cx="423.287" cy="84.0726" r="6.01987" fill="#A3E635"/>
<circle cx="376.28" cy="84.0726" r="6.01987" fill="#D9F99D"/>
<circle cx="218.215" cy="84.0726" r="6.01987" transform="rotate(-180 218.215 84.0726)" fill="#BEF264"/>
<circle cx="194.712" cy="84.0726" r="6.01987" transform="rotate(-180 194.712 84.0726)" fill="#A3E635"/>
<circle cx="241.719" cy="84.0726" r="6.01987" transform="rotate(-180 241.719 84.0726)" fill="#D9F99D"/>
<path d="M330.651 151.483C328.148 151.483 328.148 155.161 330.651 155.161C333.153 155.161 333.153 151.483 330.651 151.483ZM328.774 164.358C328.774 166.81 332.528 166.81 332.528 164.358V158.227C332.528 155.774 328.774 155.774 328.774 158.227V164.358ZM324.395 151.483C326.897 151.483 326.897 155.161 324.395 155.161H317.513V157.614H321.892C324.395 157.614 324.395 161.292 321.892 161.292H317.513V164.358C317.513 166.81 313.759 166.81 313.759 164.358V153.322C313.759 152.3 314.593 151.483 315.636 151.483H324.395ZM338.784 155.161V162.518C338.784 167.832 334.404 172.328 328.774 172.328H325.02C321.058 176.824 315.219 179.685 308.754 179.685C302.289 179.685 296.45 176.824 292.488 172.328H288.734C283.312 172.328 278.725 168.036 278.725 162.518V155.161C278.725 149.643 283.312 145.351 288.734 145.351H292.488C296.45 140.855 302.289 137.994 308.754 137.994C315.219 137.994 321.058 140.855 325.02 145.351H328.774C334.404 145.351 338.784 149.848 338.784 155.161ZM304.375 151.483C301.872 151.483 301.872 155.161 304.375 155.161C306.877 155.161 306.877 151.483 304.375 151.483ZM302.498 164.358C302.498 166.81 306.252 166.81 306.252 164.358V158.227C306.252 155.774 302.498 155.774 302.498 158.227V164.358ZM296.867 164.562L299.787 154.139C300.621 151.074 296.867 150.665 296.242 152.913L294.991 157.409L293.739 152.913C293.322 151.074 290.403 151.074 289.986 152.913L288.734 157.409L287.483 152.913C286.858 150.869 283.104 151.074 283.938 154.139L286.858 164.562C287.483 166.606 289.986 166.81 290.611 164.562L291.863 160.27L293.114 164.562C293.739 166.81 296.242 166.81 296.867 164.562ZM328.774 147.804H315.636C312.508 147.804 310.005 150.256 310.005 153.322V164.358C310.005 166.81 308.337 169.467 304.792 169.876H328.774C332.945 169.876 336.281 166.606 336.281 162.518V155.161C336.281 151.074 332.945 147.804 328.774 147.804Z" fill="#374151"/>
<path fill-rule="evenodd" clip-rule="evenodd" d="M238.709 136.431C230.715 136.431 224.235 142.911 224.235 150.905V166.775C224.235 174.768 230.715 181.248 238.709 181.248C246.702 181.248 253.182 174.768 253.182 166.775V150.905C253.182 142.911 246.702 136.431 238.709 136.431ZM246.675 152.424L240.099 158.84L246.675 165.256C246.925 165.5 247.067 165.835 247.067 166.184C247.067 166.534 246.925 166.869 246.675 167.113L239.459 174.154C239.212 174.395 238.885 174.523 238.552 174.523C238.382 174.523 238.211 174.49 238.049 174.421C237.567 174.218 237.255 173.747 237.255 173.225V161.615L231.15 167.571C230.637 168.072 229.815 168.062 229.315 167.549C228.814 167.036 228.824 166.214 229.337 165.713L236.382 158.84L229.337 151.966C228.824 151.466 228.814 150.644 229.315 150.131C229.815 149.618 230.637 149.608 231.15 150.108L237.255 156.064V144.455C237.255 143.932 237.567 143.461 238.049 143.258C238.53 143.056 239.085 143.161 239.459 143.526L246.675 150.566C246.925 150.81 247.067 151.145 247.067 151.495C247.067 151.845 246.925 152.18 246.675 152.424ZM243.91 151.495L239.851 147.534V155.456L243.91 151.495ZM243.91 166.184L239.851 162.223V170.145L243.91 166.184Z" fill="#374151"/>
<path d="M381.515 134.912L381.405 134.868C379.538 138.198 378.275 141.631 377.922 145.016L377.917 145.06L377.958 145.077L380.073 145.984L380.121 146.004L380.148 145.961C382.764 141.785 386.236 137.558 390.614 133.683L390.554 133.582C387.464 134.675 384.682 136.218 382.551 138.972C383.827 136.462 385.8 133.989 387.95 131.512L387.87 131.424C384.834 133.592 382.162 136.04 380.43 139.252L381.515 134.912Z" fill="#374151" stroke="#4B5563" stroke-width="0.120118"/>
<path d="M379.872 145.674L379.78 145.626L379.785 145.73C379.81 146.232 379.81 146.722 379.808 147.197C379.808 147.23 379.808 147.262 379.808 147.295C379.806 147.734 379.805 148.161 379.823 148.57C379.86 149.448 379.987 150.253 380.398 150.946L380.397 150.946L380.398 150.947C382.259 153.914 383.314 156.527 383.967 159.391C385.627 166.786 384.314 173.505 379.91 176.758L379.786 176.849L379.939 176.866C384.068 177.322 388.495 175.207 391.194 171.724C393.896 168.238 394.87 163.376 392.087 158.342C391.301 156.896 389.921 155.467 388.213 154.074C386.503 152.68 384.461 151.318 382.345 150.008L382.345 150.008L382.341 150.006C382.116 149.888 381.931 149.672 381.784 149.394C381.636 149.117 381.527 148.781 381.452 148.429C381.303 147.723 381.291 146.963 381.365 146.492L381.372 146.45L381.333 146.43L379.872 145.674Z" fill="#374151" stroke="#4B5563" stroke-width="0.120118"/>
<path d="M378.292 150.524L378.175 150.496C378.115 150.703 378.055 150.915 377.995 151.13C377.775 151.909 377.546 152.721 377.27 153.444C376.918 154.369 376.495 155.133 375.934 155.499L375.933 155.499L375.928 155.503C375.655 155.727 375.343 155.927 375.029 156.115C374.916 156.183 374.802 156.25 374.69 156.315C374.492 156.431 374.298 156.545 374.121 156.658L374.121 156.658L374.119 156.659C374.082 156.684 374.044 156.71 374.007 156.735C371.525 158.422 369.047 160.106 367.9 164.197C367.593 165.27 367.798 166.09 368.049 167.094L368.05 167.098C368.05 167.098 368.05 167.099 368.05 167.099C368.658 169.681 370.427 172.409 371.841 174.025L371.84 174.026L371.849 174.032L371.849 174.032L371.849 174.032L371.849 174.033L371.851 174.034L371.859 174.041L371.887 174.064C371.91 174.083 371.941 174.109 371.972 174.137C372.003 174.165 372.033 174.193 372.054 174.217C372.065 174.229 372.073 174.239 372.077 174.245C372.078 174.246 372.078 174.246 372.078 174.246V174.26L372.094 174.277C373.467 175.804 375.551 176.462 378.117 177.116L378.177 177.132L378.191 177.071L378.292 176.618L378.305 176.559L378.246 176.546C376.13 176.067 374.991 175.729 374.243 175.349C373.504 174.973 373.145 174.556 372.596 173.907C372.595 173.904 372.594 173.902 372.593 173.9C372.59 173.891 372.585 173.883 372.58 173.877C372.571 173.863 372.559 173.848 372.547 173.834C372.522 173.806 372.489 173.773 372.459 173.742L372.458 173.741C372.426 173.71 372.396 173.68 372.374 173.654C372.363 173.642 372.355 173.632 372.35 173.625C372.35 173.625 372.35 173.624 372.349 173.624V173.61L372.335 173.593C370.978 172.036 369.272 169.425 368.671 166.97C368.469 166.111 368.272 165.22 368.519 164.382L368.519 164.381C369.599 160.502 371.927 158.935 374.344 157.309C374.392 157.276 374.44 157.244 374.489 157.211L374.489 157.211C375.093 156.808 375.698 156.405 376.254 156.001L376.254 156.001L376.255 156C376.951 155.459 377.384 154.472 377.68 153.438C377.907 152.645 378.057 151.814 378.182 151.119C378.221 150.906 378.257 150.706 378.292 150.524Z" fill="#374151" stroke="#4B5563" stroke-width="0.120118"/>
<path d="M379.401 157.053L379.281 157.063L379.643 160.99L379.586 161.009C379.587 161.009 379.587 161.009 379.587 161.009C379.699 161.346 379.947 161.729 380.206 162.131C380.245 162.191 380.284 162.252 380.323 162.313C380.626 162.786 380.923 163.282 381.046 163.775L381.046 163.775L381.046 163.776C381.059 163.824 381.072 163.872 381.085 163.92C381.25 164.532 381.422 165.169 381.556 165.763C381.7 166.405 381.8 166.991 381.8 167.437C381.8 168.443 381.749 170.352 381.297 172.36L381.297 172.361C380.948 174.006 380.205 175.443 378.926 176.239C377.574 175.986 376.039 175.486 375.15 174.696L375.149 174.695C373.345 173.142 371.793 170.536 371.594 168.288C371.52 167.375 371.903 166.23 372.61 165.14C373.317 164.052 374.343 163.026 375.542 162.352L375.542 162.352L375.544 162.351C376.558 161.742 377.196 161.106 377.637 160.34C378.076 159.575 378.317 158.686 378.544 157.577L378.428 157.546C377.824 159.459 377.225 160.999 375.283 162.045C372.396 163.564 370.918 166.052 371.071 168.499L371.071 168.499C371.172 170.042 371.527 171.336 372.162 172.454C372.796 173.571 373.71 174.509 374.925 175.344C375.434 175.701 376.169 176.068 376.926 176.371C377.684 176.674 378.469 176.915 379.079 177.017L379.149 177.028V176.957V176.856C379.613 176.755 380.122 176.331 380.586 175.709C381.069 175.06 381.512 174.185 381.816 173.197L381.816 173.197L381.817 173.196C382.322 171.376 382.524 169.103 382.474 167.637L382.474 167.637L382.474 167.635C382.423 166.772 382.069 164.952 381.361 163.284C381.11 162.639 380.731 161.991 380.407 161.438C380.274 161.21 380.15 160.999 380.049 160.81L380.049 160.81L380.048 160.808C379.828 160.442 379.716 159.912 379.634 159.263C379.595 158.954 379.563 158.621 379.529 158.268L379.525 158.219C379.489 157.848 379.451 157.457 379.401 157.053Z" fill="#374151" stroke="#4B5563" stroke-width="0.120118"/>
<path d="M379.098 163.948L378.979 163.964C379.004 164.574 379.131 165.258 379.276 165.982C379.295 166.078 379.315 166.175 379.334 166.272C379.463 166.91 379.598 167.576 379.685 168.251L379.685 168.251C379.835 169.403 379.785 170.557 379.735 171.565L379.735 171.565C379.71 172.141 379.609 172.956 379.446 173.759C379.288 174.537 379.072 175.298 378.811 175.819C378.386 175.596 378.19 175.372 377.886 175.023C377.867 175.001 377.847 174.979 377.827 174.955C377.428 174.407 377.129 173.808 376.879 173.158L376.879 173.157C376.868 173.13 376.857 173.102 376.845 173.074C376.65 172.587 376.422 172.019 376.328 171.407C376.179 170.411 376.228 168.816 377.375 167.22L377.375 167.22L377.376 167.22C377.51 167.025 377.63 166.857 377.737 166.706C377.987 166.353 378.168 166.098 378.311 165.835C378.517 165.456 378.644 165.059 378.796 164.326L378.679 164.297C378.479 164.947 378.305 165.306 378.065 165.639C377.908 165.856 377.725 166.06 377.486 166.327C377.352 166.476 377.202 166.644 377.029 166.844C375.955 168.071 375.806 169.906 375.806 171.366C375.806 171.984 376.062 172.699 376.314 173.303C376.338 173.366 376.363 173.431 376.387 173.495C376.615 174.091 376.854 174.717 377.176 175.178C377.457 175.586 377.775 175.917 378.07 176.154C378.361 176.389 378.636 176.536 378.829 176.563L378.898 176.573V176.504V176.476C379.548 175.722 379.953 175.013 380.105 174.249L380.105 174.249L380.106 174.247C380.219 173.568 380.276 172.916 380.339 172.191C380.361 171.944 380.383 171.69 380.408 171.423C380.51 170.509 380.459 169.344 380.206 168.13C380.054 167.372 379.84 166.602 379.632 165.884C379.598 165.766 379.564 165.649 379.53 165.533C379.36 164.949 379.202 164.409 379.098 163.948Z" fill="#374151" stroke="#4B5563" stroke-width="0.120118"/>
<path d="M379.306 149.279C379.304 149.218 379.302 149.158 379.301 149.1L379.181 149.104C379.182 149.163 379.184 149.222 379.186 149.283M379.306 149.279C379.323 149.852 379.345 150.556 379.384 151.291C379.543 152.916 379.807 154.516 380.047 154.996C380.102 155.162 380.322 155.561 380.624 156.112C381.144 157.057 381.91 158.449 382.515 159.882M379.306 149.279C379.304 149.219 379.302 149.159 379.301 149.101L379.241 149.102L379.181 149.104C379.182 149.162 379.184 149.222 379.186 149.283M379.306 149.279C379.339 150.278 379.448 151.49 379.59 152.551C379.665 153.114 379.75 153.633 379.838 154.055C379.926 154.48 380.016 154.8 380.1 154.969L380.104 154.976L380.104 154.977C380.139 155.084 380.25 155.299 380.414 155.603C380.492 155.747 380.58 155.907 380.677 156.083C380.785 156.279 380.904 156.496 381.031 156.73C381.51 157.612 382.09 158.722 382.57 159.858M382.515 159.882C383.17 161.342 383.371 162.753 383.422 163.156C383.925 167.387 383.522 169.15 382.414 172.928M382.515 159.882L382.57 159.857C382.57 159.857 382.57 159.857 382.57 159.858M382.515 159.882L382.57 159.858C382.57 159.858 382.57 159.858 382.57 159.858M382.414 172.928C381.78 175.123 380.059 176.846 379.265 176.998L379.243 177.037L379.19 177.008L379.186 176.948C379.199 176.947 379.212 176.945 379.226 176.943L379.442 176.554C380.752 175.748 381.91 173.683 382.263 172.021C382.918 168.948 383.422 165.674 383.019 163.76M382.414 172.928L382.472 172.944C382.472 172.944 382.472 172.944 382.472 172.944M382.414 172.928L382.472 172.945C382.472 172.944 382.472 172.944 382.472 172.944M383.019 163.76C382.997 163.661 382.972 163.511 382.941 163.321C382.83 162.641 382.635 161.443 382.162 160.184C381.58 158.573 380.81 157.172 380.331 156.298C380.105 155.888 379.944 155.594 379.896 155.449C379.564 154.586 379.407 152.87 379.324 151.296C379.256 150.601 379.206 149.902 379.186 149.283M383.019 163.76L382.96 163.773C382.96 163.773 382.96 163.773 382.96 163.773M383.019 163.76L382.96 163.772C382.96 163.773 382.96 163.773 382.96 163.773M379.186 149.283C379.211 150.151 379.25 151.325 379.338 152.45C379.433 153.651 379.584 154.805 379.839 155.469M382.57 159.858C383.228 161.326 383.431 162.743 383.481 163.148L383.481 163.149C383.733 165.267 383.759 166.771 383.582 168.219C383.405 169.666 383.026 171.056 382.472 172.944M382.472 172.944C382.142 174.087 381.52 175.102 380.886 175.838C380.568 176.206 380.247 176.505 379.956 176.716C379.667 176.926 379.401 177.054 379.194 177.068L379.084 177.075L379.138 176.978L379.39 176.525L379.397 176.511L379.411 176.503C380.054 176.107 380.665 175.398 381.16 174.578C381.655 173.758 382.03 172.832 382.204 172.008L382.204 172.008C382.532 170.473 382.821 168.889 382.978 167.45C383.135 166.009 383.159 164.72 382.96 163.773M382.96 163.773C382.937 163.671 382.912 163.518 382.881 163.326C382.77 162.644 382.576 161.457 382.106 160.205L382.106 160.204C381.679 159.024 381.152 157.957 380.711 157.127C380.553 156.827 380.405 156.559 380.278 156.327C380.229 156.238 380.183 156.154 380.14 156.076C379.989 155.799 379.879 155.589 379.839 155.469M379.839 155.469C379.839 155.47 379.839 155.47 379.84 155.47L379.896 155.449L379.839 155.468C379.839 155.468 379.839 155.469 379.839 155.469Z" fill="#374151" stroke="#4B5563" stroke-width="0.120118"/>
<path d="M379.872 145.825L379.79 145.784L379.785 145.875C379.684 147.689 379.683 149.107 379.988 150.475L379.988 150.475L379.988 150.476C380.078 150.849 380.267 151.261 380.509 151.704C380.725 152.098 380.985 152.52 381.258 152.964C381.292 153.02 381.327 153.076 381.361 153.132C381.985 154.146 382.661 155.274 383.062 156.475C384.568 161.094 384.167 167.126 383.111 171.806C382.912 172.625 382.339 173.636 381.568 174.538C380.798 175.44 379.836 176.226 378.866 176.599L378.689 176.667L378.873 176.713L380.284 177.066L380.293 177.068L380.302 177.068C380.509 177.054 380.788 176.919 381.097 176.703C381.408 176.486 381.759 176.179 382.111 175.809C382.814 175.068 383.524 174.066 383.931 172.999L383.931 172.999C385.194 169.612 385.446 165.623 384.941 161.386L384.941 161.385C384.916 161.181 384.739 160.171 384.487 159.025C384.235 157.88 383.907 156.59 383.577 155.829C383.122 154.69 382.527 153.717 381.986 152.854C381.945 152.79 381.905 152.726 381.865 152.662C381.371 151.877 380.938 151.188 380.707 150.543L380.707 150.543L380.707 150.542C380.509 150.022 380.371 149.06 380.314 148.154C380.286 147.702 380.278 147.267 380.293 146.91C380.3 146.732 380.313 146.575 380.332 146.445C380.351 146.314 380.375 146.217 380.403 146.155L380.427 146.102L380.375 146.077L379.872 145.825Z" fill="#374151" stroke="#4B5563" stroke-width="0.120118"/>
<path d="M389.959 154.75L389.959 154.749C388.493 153.435 386.675 152.324 384.76 151.266L384.759 151.265C384.338 151.043 383.477 150.419 382.835 149.49C382.193 148.562 381.773 147.335 382.219 145.896L382.236 145.844L382.185 145.823L375.586 143.103L375.554 143.09L375.527 143.111L375.073 143.464L375.033 143.495L375.058 143.54C376.162 145.522 376.421 147.033 376.272 148.131C376.123 149.228 375.567 149.917 375.027 150.26L375.027 150.26L375.026 150.261C374.506 150.616 373.931 150.992 373.334 151.383C373.295 151.409 373.256 151.434 373.217 151.459C372.579 151.877 371.919 152.311 371.279 152.749C370.001 153.624 368.8 154.521 368.015 155.357C366.474 156.948 365.474 158.505 364.897 160.158C364.321 161.811 364.17 163.557 364.321 165.527C364.625 170.642 368.322 174.892 373.328 176.561L373.329 176.561C375.504 177.269 377.526 177.37 379.744 177.37C383.33 177.37 387.072 176.411 389.756 174.183C392.641 171.804 394.311 168.21 394.311 164.516C394.311 160.821 392.742 157.279 389.959 154.75ZM372.265 174.989L372.265 174.989C368.304 173.084 365.699 168.922 365.499 165.57C365.323 162.131 366.064 159.928 367.226 158.273C368.187 156.904 369.436 155.907 370.709 154.891C370.979 154.674 371.251 154.458 371.521 154.236L371.522 154.236C371.946 153.886 372.416 153.579 372.904 153.276C373.033 153.196 373.163 153.116 373.293 153.036C373.658 152.812 374.03 152.584 374.394 152.338C375.387 151.668 376.34 150.855 377.027 149.584L377.027 149.584L377.028 149.58C377.287 149.011 377.438 147.788 377.133 146.519L377.133 146.519L377.132 146.514C377.055 146.285 376.866 145.793 376.664 145.314C376.563 145.074 376.459 144.837 376.364 144.637C376.312 144.529 376.262 144.43 376.217 144.348L380.933 146.417C380.647 147.554 380.968 148.71 381.544 149.687C382.128 150.677 382.979 151.491 383.744 151.925C385.253 152.779 387.616 154.389 389.073 155.695L389.073 155.695C391.628 157.95 392.932 161.156 392.932 164.516C392.932 167.874 391.528 171.181 388.924 173.335C387.697 174.336 385.979 175.189 384.271 175.78C382.562 176.37 380.87 176.695 379.697 176.645C377.081 176.494 374.521 176.092 372.265 174.989Z" fill="#374151" stroke="#4B5563" stroke-width="0.120118"/>
</svg>
