<svg width="619" height="222" viewBox="0 0 619 222" fill="none" xmlns="http://www.w3.org/2000/svg">
<rect x="2.01226" y="1.31322" width="117" height="218.985" rx="17.1541" fill="#ECFCCB" stroke="#65A30D" stroke-width="2.28721"/>
<circle cx="4.53935" cy="4.53935" r="3.39574" transform="matrix(-1 0 0 1 65.052 12.182)" stroke="#65A30D" stroke-width="2.28721"/>
<path d="M33.4502 16.2415H47.6309" stroke="#65A30D" stroke-width="2.28721" stroke-linecap="round" stroke-linejoin="round"/>
<path d="M73.3938 16.2415L87.5745 16.2415" stroke="#65A30D" stroke-width="2.28721" stroke-linecap="round" stroke-linejoin="round"/>
<path d="M98.1519 31.2031H22.8732C16.7678 31.2031 11.8183 36.1525 11.8183 42.2579V189.712C11.8183 195.817 16.7678 200.767 22.8732 200.767H98.1519C104.257 200.767 109.207 195.817 109.207 189.712V42.2579C109.207 36.1525 104.257 31.2031 98.1519 31.2031Z" fill="#F9FAFB" stroke="#65A30D" stroke-width="2.28721"/>
<path d="M48.3968 88.9191C46.1621 88.9191 44.3198 90.7614 44.3198 92.9961V98.1786H54.363V92.9961C54.363 90.7614 52.543 88.9191 50.3084 88.9191H48.3968ZM70.7412 88.9191C68.5065 88.9191 66.6642 90.7614 66.6642 92.9961V120.523H76.7074V92.9961C76.7074 90.7614 74.8875 88.9191 72.6528 88.9191H70.7412ZM44.3198 111.447V138.974C44.3198 141.209 46.1398 143.051 48.3968 143.051H50.3084C52.543 143.051 54.3853 141.209 54.3853 138.974V111.447H44.3198ZM66.6631 133.791V138.974C66.6631 141.209 68.5065 143.051 70.7401 143.051H72.6517C74.8863 143.051 76.7286 141.209 76.7286 138.974V133.791C76.7297 133.791 66.6631 133.791 66.6631 133.791Z" fill="#82C91E"/>
<path d="M37.5235 99.7852C35.2888 99.7852 33.4465 101.605 33.4465 103.862V105.774C33.4465 108.008 35.2665 109.851 37.5235 109.851H65.0505V99.7852H37.5235ZM78.3187 99.7852V109.852H83.5013C85.7359 109.852 87.5782 108.032 87.5782 105.775V103.863C87.5782 101.606 85.7359 99.7863 83.5013 99.7863H78.3187V99.7852ZM37.5235 122.13C35.2888 122.13 33.4465 123.95 33.4465 126.207V128.118C33.4465 130.353 35.2665 132.195 37.5235 132.195H42.706V122.13H37.5235ZM55.9743 122.13V132.196H83.5013C85.7359 132.196 87.5782 130.353 87.5782 128.119V126.208C87.5782 123.951 85.7359 122.131 83.5013 122.131L55.9743 122.13Z" fill="#A3E635"/>
<rect x="499.933" y="1.31322" width="117" height="218.985" rx="17.1541" fill="#ECFCCB" stroke="#65A30D" stroke-width="2.28721"/>
<circle cx="4.53935" cy="4.53935" r="3.39574" transform="matrix(-1 0 0 1 562.972 12.182)" stroke="#65A30D" stroke-width="2.28721"/>
<path d="M531.371 16.2415H545.552" stroke="#65A30D" stroke-width="2.28721" stroke-linecap="round" stroke-linejoin="round"/>
<path d="M571.314 16.2415L585.495 16.2415" stroke="#65A30D" stroke-width="2.28721" stroke-linecap="round" stroke-linejoin="round"/>
<path d="M596.072 31.2031H520.794C514.688 31.2031 509.739 36.1525 509.739 42.2579V189.712C509.739 195.817 514.688 200.767 520.794 200.767H596.072C602.178 200.767 607.127 195.817 607.127 189.712V42.2579C607.127 36.1525 602.178 31.2031 596.072 31.2031Z" fill="#F9FAFB" stroke="#65A30D" stroke-width="2.28721"/>
<path d="M546.317 88.9191C544.083 88.9191 542.24 90.7614 542.24 92.9961V98.1786H552.284V92.9961C552.284 90.7614 550.464 88.9191 548.229 88.9191H546.317ZM568.662 88.9191C566.427 88.9191 564.585 90.7614 564.585 92.9961V120.523H574.628V92.9961C574.628 90.7614 572.808 88.9191 570.573 88.9191H568.662ZM542.24 111.447V138.974C542.24 141.209 544.06 143.051 546.317 143.051H548.229C550.464 143.051 552.306 141.209 552.306 138.974V111.447H542.24ZM564.584 133.791V138.974C564.584 141.209 566.427 143.051 568.661 143.051H570.572C572.807 143.051 574.649 141.209 574.649 138.974V133.791C574.65 133.791 564.584 133.791 564.584 133.791Z" fill="#82C91E"/>
<path d="M535.444 99.7852C533.209 99.7852 531.367 101.605 531.367 103.862V105.774C531.367 108.008 533.187 109.851 535.444 109.851H562.971V99.7852H535.444ZM576.239 99.7852V109.852H581.422C583.657 109.852 585.499 108.032 585.499 105.775V103.863C585.499 101.606 583.657 99.7863 581.422 99.7863H576.239V99.7852ZM535.444 122.13C533.209 122.13 531.367 123.95 531.367 126.207V128.118C531.367 130.353 533.187 132.195 535.444 132.195H540.627V122.13H535.444ZM553.895 122.13V132.196H581.422C583.657 132.196 585.499 130.353 585.499 128.119V126.208C585.499 123.951 583.657 122.131 581.422 122.131L553.895 122.13Z" fill="#A3E635"/>
<path d="M332.102 29.6095H286.358C276.884 29.6095 269.204 37.2897 269.204 46.7636V92.5078C269.204 101.982 276.884 109.662 286.358 109.662H332.102C341.576 109.662 349.256 101.982 349.256 92.5078V46.7636C349.256 37.2897 341.576 29.6095 332.102 29.6095Z" fill="#ECFCCB" stroke="#65A30D" stroke-width="2.28721"/>
<path d="M302.078 60.3328V71.8455C302.078 75.7935 305.279 78.994 309.227 78.994C313.175 78.994 316.375 75.7935 316.375 71.8455V60.3328C316.375 56.3848 313.175 53.1843 309.227 53.1843C305.279 53.1843 302.078 56.3848 302.078 60.3328Z" stroke="#65A30D" stroke-width="2.28721"/>
<rect x="297.358" y="66.6916" width="23.7446" height="17.2923" rx="1.90601" fill="#A3E635" stroke="#65A30D" stroke-width="2.28721"/>
<circle cx="424.716" cy="69.6415" r="7.64174" fill="#BEF264"/>
<circle cx="454.552" cy="69.6415" r="7.64174" fill="#A3E635"/>
<circle cx="394.88" cy="69.6415" r="7.64174" fill="#D9F99D"/>
<circle cx="194.23" cy="69.6416" r="7.64174" transform="rotate(-180 194.23 69.6416)" fill="#BEF264"/>
<circle cx="164.393" cy="69.6416" r="7.64174" transform="rotate(-180 164.393 69.6416)" fill="#A3E635"/>
<circle cx="224.066" cy="69.6416" r="7.64174" transform="rotate(-180 224.066 69.6416)" fill="#D9F99D"/>
<path d="M336.957 155.213C333.781 155.213 333.781 159.883 336.957 159.883C340.134 159.883 340.134 155.213 336.957 155.213ZM334.575 171.557C334.575 174.67 339.34 174.67 339.34 171.557V163.774C339.34 160.661 334.575 160.661 334.575 163.774V171.557ZM329.016 155.213C332.192 155.213 332.192 159.883 329.016 159.883H320.28V162.996H325.839C329.016 162.996 329.016 167.666 325.839 167.666H320.28V171.557C320.28 174.67 315.515 174.67 315.515 171.557V157.548C315.515 156.251 316.574 155.213 317.897 155.213H329.016ZM347.282 159.883V169.222C347.282 175.967 341.722 181.675 334.575 181.675H329.81C324.78 187.382 317.368 191.014 309.161 191.014C300.955 191.014 293.543 187.382 288.513 181.675H283.748C276.865 181.675 271.041 176.227 271.041 169.222V159.883C271.041 152.878 276.865 147.43 283.748 147.43H288.513C293.543 141.723 300.955 138.091 309.161 138.091C317.368 138.091 324.78 141.723 329.81 147.43H334.575C341.722 147.43 347.282 153.138 347.282 159.883ZM303.602 155.213C300.426 155.213 300.426 159.883 303.602 159.883C306.779 159.883 306.779 155.213 303.602 155.213ZM301.22 171.557C301.22 174.67 305.985 174.67 305.985 171.557V163.774C305.985 160.661 301.22 160.661 301.22 163.774V171.557ZM294.072 171.817L297.778 158.586C298.837 154.694 294.072 154.175 293.278 157.029L291.69 162.737L290.101 157.029C289.572 154.694 285.866 154.694 285.336 157.029L283.748 162.737L282.16 157.029C281.365 154.435 276.6 154.694 277.659 158.586L281.365 171.817C282.16 174.411 285.336 174.67 286.13 171.817L287.719 166.369L289.307 171.817C290.101 174.67 293.278 174.67 294.072 171.817ZM334.575 150.543H317.897C313.926 150.543 310.75 153.656 310.75 157.548V171.557C310.75 174.67 308.632 178.043 304.132 178.562H334.575C339.869 178.562 344.105 174.411 344.105 169.222V159.883C344.105 154.694 339.869 150.543 334.575 150.543Z" fill="#374151"/>
<path fill-rule="evenodd" clip-rule="evenodd" d="M220.244 136.107C210.097 136.107 201.871 144.332 201.871 154.479V174.626C201.871 184.773 210.097 192.998 220.244 192.998C230.391 192.998 238.617 184.773 238.617 174.626V154.479C238.617 144.332 230.391 136.107 220.244 136.107ZM230.357 156.408L222.009 164.552L230.357 172.697C230.674 173.007 230.854 173.432 230.854 173.876C230.854 174.32 230.674 174.745 230.357 175.055L221.196 183.993C220.882 184.299 220.467 184.461 220.045 184.461C219.83 184.461 219.612 184.419 219.406 184.332C218.795 184.074 218.398 183.476 218.398 182.813V168.076L210.649 175.636C209.998 176.272 208.954 176.259 208.319 175.608C207.684 174.957 207.696 173.913 208.348 173.278L217.291 164.553L208.348 155.827C207.696 155.192 207.684 154.148 208.319 153.497C208.955 152.846 209.997 152.833 210.649 153.469L218.398 161.029V146.292C218.398 145.629 218.795 145.031 219.406 144.773C220.017 144.517 220.722 144.65 221.196 145.112L230.357 154.05C230.674 154.36 230.854 154.785 230.854 155.229C230.854 155.673 230.674 156.098 230.357 156.408ZM226.847 155.229L221.694 150.201V160.257L226.847 155.229ZM221.694 168.848V178.904L226.847 173.876L221.694 168.848Z" fill="#374151"/>
<path d="M401.526 134.178L401.386 134.123C399.016 138.349 397.413 142.707 396.964 147.004L396.958 147.06L397.01 147.082L399.696 148.233L399.756 148.259L399.79 148.204C403.111 142.903 407.519 137.537 413.076 132.618L413 132.49C409.078 133.877 405.546 135.836 402.841 139.332C404.461 136.146 406.965 133.007 409.694 129.862L409.592 129.75C405.739 132.502 402.346 135.61 400.149 139.688L401.526 134.178Z" fill="#374151" stroke="#4B5563" stroke-width="0.152481"/>
<path d="M399.441 147.84L399.323 147.779L399.33 147.911C399.362 148.548 399.362 149.17 399.36 149.772C399.36 149.814 399.359 149.856 399.359 149.898C399.357 150.455 399.355 150.996 399.378 151.515C399.426 152.63 399.586 153.653 400.108 154.532L400.108 154.532L400.109 154.534C402.47 158.3 403.81 161.617 404.639 165.253C406.746 174.64 405.079 183.169 399.489 187.298L399.332 187.414L399.526 187.435C404.767 188.014 410.386 185.33 413.813 180.908C417.243 176.483 418.48 170.312 414.947 163.92C413.949 162.085 412.197 160.271 410.029 158.503C407.859 156.733 405.266 155.005 402.579 153.342L402.579 153.341L402.575 153.339C402.289 153.189 402.055 152.915 401.867 152.562C401.68 152.21 401.542 151.784 401.447 151.336C401.257 150.441 401.241 149.476 401.336 148.878L401.344 148.824L401.295 148.799L399.441 147.84Z" fill="#374151" stroke="#4B5563" stroke-width="0.152481"/>
<path d="M397.435 153.996L397.287 153.961C397.21 154.224 397.134 154.493 397.057 154.765C396.778 155.755 396.487 156.785 396.138 157.703C395.69 158.877 395.154 159.847 394.441 160.312L394.44 160.312L394.434 160.317C394.087 160.601 393.691 160.855 393.292 161.094C393.149 161.18 393.005 161.264 392.862 161.348C392.611 161.495 392.365 161.639 392.14 161.782L392.14 161.782L392.138 161.784C392.09 161.816 392.042 161.848 391.995 161.881C388.845 164.022 385.699 166.16 384.242 171.353C383.853 172.716 384.113 173.756 384.432 175.031L384.433 175.036C384.433 175.036 384.433 175.037 384.433 175.037C385.205 178.314 387.451 181.778 389.246 183.829L389.245 183.83L389.255 183.838L389.255 183.838L389.256 183.838L389.256 183.839L389.259 183.841L389.269 183.849C389.277 183.856 389.29 183.866 389.304 183.878C389.334 183.903 389.373 183.936 389.412 183.971C389.451 184.007 389.489 184.043 389.516 184.073C389.53 184.088 389.54 184.1 389.546 184.109C389.546 184.109 389.546 184.11 389.547 184.11V184.128L389.566 184.149C391.31 186.087 393.955 186.922 397.213 187.753L397.289 187.772L397.306 187.696L397.434 187.12L397.451 187.046L397.377 187.029C394.69 186.422 393.244 185.992 392.295 185.509C391.356 185.032 390.901 184.502 390.204 183.679C390.203 183.676 390.202 183.673 390.201 183.67C390.196 183.659 390.19 183.649 390.184 183.641C390.173 183.623 390.157 183.604 390.142 183.586C390.11 183.551 390.069 183.509 390.03 183.47L390.028 183.469C389.988 183.429 389.95 183.39 389.922 183.359C389.908 183.343 389.898 183.33 389.892 183.321C389.892 183.321 389.891 183.32 389.891 183.32V183.303L389.872 183.281C388.15 181.304 385.984 177.99 385.221 174.873C384.965 173.783 384.715 172.652 385.028 171.587L385.029 171.586C386.4 166.662 389.355 164.674 392.423 162.609C392.484 162.568 392.545 162.527 392.607 162.485L392.607 162.485C393.374 161.974 394.142 161.462 394.847 160.949L394.847 160.949L394.849 160.948C395.733 160.26 396.282 159.008 396.658 157.696C396.946 156.689 397.136 155.634 397.295 154.752C397.344 154.482 397.39 154.228 397.435 153.996Z" fill="#374151" stroke="#4B5563" stroke-width="0.152481"/>
<path d="M398.842 162.285L398.69 162.296C398.706 162.854 398.702 163.345 398.696 163.792C398.695 163.856 398.695 163.919 398.694 163.981C398.688 164.354 398.683 164.699 398.69 165.029C398.706 165.802 398.787 166.498 399.078 167.307C399.221 167.734 399.535 168.22 399.864 168.73C399.914 168.807 399.964 168.884 400.013 168.961C400.397 169.562 400.774 170.191 400.931 170.817L400.931 170.817L400.931 170.818C400.947 170.879 400.964 170.94 400.98 171.002C401.19 171.778 401.408 172.587 401.578 173.341C401.761 174.155 401.887 174.9 401.887 175.466C401.887 176.743 401.824 179.166 401.25 181.716L401.25 181.717C400.807 183.805 399.862 185.629 398.24 186.64C396.524 186.319 394.574 185.684 393.446 184.681L393.445 184.68C391.155 182.708 389.185 179.4 388.932 176.547C388.838 175.387 389.324 173.934 390.222 172.551C391.12 171.169 392.422 169.867 393.944 169.011L393.944 169.011L393.946 169.01C395.234 168.237 396.044 167.429 396.603 166.457C397.161 165.486 397.466 164.357 397.754 162.949L397.607 162.911C396.84 165.338 396.081 167.294 393.615 168.621C389.951 170.55 388.074 173.708 388.268 176.814L388.268 176.814C388.396 178.773 388.846 180.416 389.653 181.834C390.459 183.253 391.618 184.444 393.16 185.504C393.806 185.956 394.739 186.422 395.701 186.807C396.663 187.192 397.66 187.497 398.434 187.627L398.523 187.641V187.551V187.422C399.112 187.295 399.757 186.757 400.346 185.966C400.96 185.143 401.523 184.032 401.909 182.778L401.909 182.778L401.909 182.776C402.551 180.466 402.807 177.581 402.743 175.719L402.743 175.719L402.743 175.718C402.679 174.622 402.229 172.312 401.331 170.194C401.012 169.375 400.531 168.553 400.12 167.85C399.951 167.562 399.794 167.293 399.665 167.054L399.665 167.054L399.663 167.051C399.385 166.586 399.242 165.913 399.138 165.09C399.088 164.698 399.048 164.275 399.005 163.826L398.999 163.765C398.954 163.294 398.906 162.798 398.842 162.285Z" fill="#374151" stroke="#4B5563" stroke-width="0.152481"/>
<path d="M398.457 171.037L398.307 171.057C398.339 171.832 398.5 172.7 398.684 173.619C398.708 173.741 398.733 173.864 398.758 173.987C398.921 174.797 399.092 175.642 399.202 176.499L399.202 176.499C399.393 177.962 399.33 179.426 399.266 180.706L399.266 180.706C399.234 181.437 399.107 182.472 398.9 183.492C398.699 184.479 398.425 185.445 398.094 186.106C397.554 185.824 397.305 185.538 396.919 185.096C396.895 185.068 396.87 185.039 396.844 185.01C396.338 184.314 395.958 183.554 395.641 182.728L395.64 182.727C395.626 182.693 395.612 182.658 395.598 182.622C395.35 182.004 395.061 181.283 394.941 180.506C394.752 179.241 394.815 177.217 396.271 175.191L396.271 175.191L396.271 175.19C396.442 174.943 396.594 174.729 396.73 174.538C397.048 174.09 397.278 173.767 397.459 173.433C397.72 172.951 397.881 172.447 398.074 171.517L397.926 171.479C397.672 172.306 397.451 172.761 397.146 173.184C396.948 173.459 396.714 173.719 396.411 174.057C396.242 174.246 396.051 174.459 395.832 174.713C394.468 176.271 394.278 178.6 394.278 180.454C394.278 181.238 394.604 182.145 394.923 182.912C394.954 182.993 394.985 183.075 395.017 183.157C395.305 183.913 395.609 184.708 396.018 185.293C396.374 185.81 396.779 186.231 397.152 186.532C397.523 186.83 397.872 187.016 398.116 187.051L398.203 187.064V186.976V186.94C399.029 185.983 399.543 185.083 399.736 184.113L399.736 184.113L399.737 184.111C399.881 183.249 399.953 182.422 400.033 181.5C400.061 181.188 400.089 180.865 400.121 180.526C400.25 179.366 400.185 177.887 399.864 176.346C399.672 175.384 399.399 174.406 399.135 173.495C399.092 173.344 399.049 173.196 399.006 173.05C398.79 172.308 398.59 171.623 398.457 171.037Z" fill="#374151" stroke="#4B5563" stroke-width="0.152481"/>
<path d="M398.715 152.189L398.562 152.193C398.564 152.268 398.566 152.344 398.569 152.421C398.601 153.523 398.65 155.014 398.762 156.442C398.882 157.966 399.074 159.431 399.398 160.274C399.449 160.426 399.589 160.692 399.781 161.044C399.835 161.143 399.893 161.25 399.955 161.363C400.117 161.657 400.304 161.998 400.506 162.378C401.064 163.432 401.734 164.787 402.276 166.285L402.276 166.285C402.872 167.875 403.118 169.382 403.259 170.247C403.299 170.492 403.331 170.685 403.36 170.815C403.613 172.017 403.582 173.654 403.382 175.482C403.183 177.309 402.816 179.32 402.401 181.269L402.401 181.269C402.179 182.315 401.703 183.49 401.075 184.531C400.447 185.572 399.671 186.472 398.854 186.975L398.837 186.985L398.828 187.003L398.508 187.578L398.44 187.701L398.58 187.691C398.842 187.674 399.18 187.511 399.547 187.245C399.916 186.977 400.324 186.598 400.727 186.13C401.532 185.196 402.321 183.908 402.74 182.457C403.443 180.06 403.925 178.296 404.149 176.459C404.374 174.62 404.342 172.712 404.022 170.022L404.021 170.022C403.957 169.508 403.7 167.709 402.865 165.845C402.256 164.403 401.519 162.994 400.912 161.874C400.75 161.577 400.599 161.302 400.462 161.053C400.339 160.83 400.227 160.626 400.128 160.444C399.919 160.058 399.779 159.785 399.734 159.649L399.735 159.648L399.73 159.639C399.623 159.425 399.509 159.018 399.397 158.479C399.285 157.943 399.178 157.284 399.082 156.569C398.901 155.222 398.763 153.684 398.721 152.416C398.719 152.339 398.717 152.263 398.715 152.189Z" fill="#374151" stroke="#4B5563" stroke-width="0.152481"/>
<path d="M399.44 148.031L399.336 147.979L399.33 148.095C399.202 150.398 399.201 152.197 399.587 153.934L399.587 153.934L399.587 153.936C399.702 154.409 399.941 154.932 400.249 155.494C400.523 155.994 400.853 156.53 401.2 157.094C401.243 157.165 401.287 157.235 401.331 157.307C402.123 158.594 402.981 160.026 403.49 161.551C405.402 167.415 404.893 175.072 403.552 181.012C403.3 182.051 402.572 183.335 401.594 184.481C400.616 185.626 399.395 186.623 398.164 187.096L397.938 187.183L398.172 187.242L399.963 187.689L399.974 187.692L399.986 187.691C400.248 187.674 400.603 187.503 400.995 187.229C401.391 186.953 401.836 186.564 402.283 186.093C403.175 185.153 404.076 183.881 404.592 182.527L404.593 182.527C406.197 178.228 406.516 173.163 405.876 167.784L405.876 167.784C405.843 167.525 405.619 166.243 405.299 164.788C404.979 163.334 404.563 161.697 404.144 160.73C403.566 159.285 402.811 158.05 402.124 156.955C402.072 156.873 402.021 156.791 401.971 156.711C401.344 155.714 400.793 154.839 400.501 154.02L400.501 154.02L400.5 154.019C400.249 153.359 400.073 152.138 400.001 150.988C399.966 150.414 399.956 149.862 399.975 149.409C399.984 149.183 400.001 148.983 400.024 148.819C400.048 148.653 400.079 148.528 400.115 148.451L400.145 148.384L400.079 148.351L399.44 148.031Z" fill="#374151" stroke="#4B5563" stroke-width="0.152481"/>
<path d="M412.246 159.36L412.245 159.36C410.384 157.692 408.076 156.281 405.645 154.938L405.644 154.937C405.11 154.655 404.017 153.863 403.201 152.684C402.387 151.506 401.853 149.948 402.42 148.122L402.441 148.055L402.376 148.029L394 144.576L393.959 144.559L393.924 144.586L393.349 145.034L393.297 145.074L393.329 145.131C394.73 147.647 395.059 149.565 394.87 150.958C394.682 152.351 393.975 153.226 393.29 153.662L393.29 153.662L393.288 153.663C392.629 154.113 391.898 154.591 391.141 155.087C391.091 155.119 391.042 155.151 390.993 155.184C390.183 155.714 389.345 156.264 388.533 156.82C386.91 157.931 385.386 159.07 384.388 160.131C382.432 162.152 381.163 164.127 380.431 166.225C379.7 168.324 379.507 170.541 379.7 173.042C380.086 179.535 384.778 184.93 391.133 187.048L391.134 187.048C393.895 187.947 396.463 188.075 399.278 188.075C403.829 188.075 408.58 186.857 411.987 184.029C415.649 181.009 417.769 176.448 417.769 171.758C417.769 167.068 415.778 162.572 412.246 159.36ZM389.784 185.053L389.784 185.053C384.756 182.634 381.449 177.351 381.195 173.096C380.972 168.73 381.912 165.934 383.387 163.833C384.606 162.095 386.192 160.829 387.808 159.539C388.152 159.265 388.497 158.99 388.84 158.708L388.84 158.708C389.379 158.264 389.975 157.875 390.595 157.489C390.758 157.388 390.923 157.287 391.089 157.185C391.552 156.901 392.024 156.612 392.487 156.299C393.747 155.448 394.957 154.417 395.828 152.803L395.828 152.803L395.831 152.798C396.159 152.076 396.35 150.524 395.963 148.913L395.964 148.912L395.961 148.906C395.865 148.616 395.624 147.99 395.368 147.382C395.24 147.078 395.107 146.777 394.987 146.524C394.921 146.386 394.858 146.26 394.801 146.156L400.786 148.782C400.424 150.227 400.831 151.694 401.562 152.933C402.304 154.191 403.384 155.224 404.356 155.774C406.27 156.859 409.271 158.903 411.12 160.561L411.121 160.561C414.364 163.423 416.018 167.493 416.018 171.758C416.018 176.021 414.237 180.219 410.931 182.952C409.374 184.224 407.193 185.307 405.024 186.056C402.855 186.806 400.707 187.219 399.218 187.155C395.897 186.964 392.648 186.453 389.784 185.053Z" fill="#374151" stroke="#4B5563" stroke-width="0.152481"/>
</svg>
