<svg width="151" height="151" viewBox="0 0 151 151" fill="none" xmlns="http://www.w3.org/2000/svg">
<rect x="-0.75" y="0.75" width="104.038" height="143.5" rx="10.152" transform="matrix(-1 0 0 1 126.69 3.24023)" fill="#DDEDFE" stroke="#196FDE" stroke-width="1.5"/>
<path d="M121.934 19.6855C121.934 16.0857 119.016 13.1675 115.416 13.1675H35.4269C31.8271 13.1675 28.9089 16.0857 28.9089 19.6855V131.795C28.9089 135.395 31.8271 138.313 35.4269 138.313H115.416C119.016 138.313 121.934 135.395 121.934 131.795V19.6855Z" fill="#F9FAFB" stroke="#196FDE" stroke-width="1.5"/>
<path d="M73.4183 21.3708C73.4183 22.4772 74.3151 23.374 75.4214 23.374C76.5277 23.374 77.4246 22.4772 77.4246 21.3708C77.4246 20.2645 76.5277 19.3677 75.4214 19.3677C74.3151 19.3677 73.4183 20.2645 73.4183 21.3708Z" stroke="#196FDE" stroke-width="1.5"/>
<path fill-rule="evenodd" clip-rule="evenodd" d="M60.6869 55.5505H89.2382C90.32 55.5505 91.3574 55.9847 92.1223 56.7575C92.8873 57.5303 93.317 58.5785 93.317 59.6714L93.317 94.9901C93.317 96.5634 91.4997 97.4219 90.3047 96.4131L82.9046 90.9484H60.6869C59.6051 90.9484 58.5677 90.5142 57.8028 89.7414C57.0379 88.9686 56.6081 87.9204 56.6081 86.8275V59.6714C56.6081 58.5785 57.0379 57.5303 57.8028 56.7575C58.5677 55.9847 59.6051 55.5505 60.6869 55.5505ZM71.5377 73.8105H63.1342V62.1439H86.791V73.8105H78.5264V77.8453H81.5493C82.0943 77.8453 82.3673 78.5111 81.9819 78.9005L75.4647 85.485C75.2258 85.7264 74.8384 85.7264 74.5995 85.485L68.0823 78.9005C67.6968 78.5111 67.9698 77.8453 68.5149 77.8453H71.5377V73.8105Z" fill="#82C91E"/>
<path d="M144.877 32.5336C144.877 28.9338 141.959 26.0156 138.359 26.0156H116.186C112.586 26.0156 109.668 28.9338 109.668 32.5336V35.526C109.668 39.1258 112.586 42.044 116.186 42.044H138.359C141.959 42.044 144.877 39.1258 144.877 35.526V32.5336Z" fill="#A3E635" stroke="#65A30D" stroke-width="1.5"/>
<path d="M144.877 33.7437H109.668V54.7064C109.668 58.3061 112.586 61.2243 116.186 61.2243H138.359C141.959 61.2243 144.877 58.3061 144.877 54.7064V33.7437Z" fill="#ECFCCB" stroke="#65A30D" stroke-width="1.5"/>
<path d="M121.359 46.6757L125.1 50.4172L133.187 42.3303" stroke="#65A30D" stroke-width="1.5" stroke-linecap="round"/>
<path d="M41.1746 95.8564C41.1746 92.2566 38.2564 89.3384 34.6566 89.3384H12.4837C8.8839 89.3384 5.9657 92.2566 5.9657 95.8564V118.029C5.9657 121.629 8.8839 124.547 12.4837 124.547H34.6566C38.2564 124.547 41.1746 121.629 41.1746 118.029V95.8564Z" fill="#ECFCCB" stroke="#65A30D" stroke-width="1.5"/>
<path d="M27.0116 117.267H24.7173V114.973H27.0116V117.267ZM24.7173 109.237H22.423V114.973H24.7173V109.237ZM33.8945 106.943H31.6002V111.531H33.8945V106.943ZM31.6002 104.648H29.3059V106.943H31.6002V104.648ZM17.8344 106.943H15.5401V109.237H17.8344V106.943ZM15.5401 104.648H13.2458V106.943H15.5401V104.648ZM23.5701 98.9127H25.8644V96.6184H23.5701V98.9127ZM14.9665 98.3391V101.781H18.4079V98.3391H14.9665ZM20.1287 103.501H13.2458V96.6184H20.1287V103.501ZM14.9665 112.105V115.546H18.4079V112.105H14.9665ZM20.1287 117.267H13.2458V110.384H20.1287V117.267ZM28.7323 98.3391V101.781H32.1738V98.3391H28.7323ZM33.8945 103.501H27.0116V96.6184H30.453H33.8945V103.501ZM31.6002 114.973V111.531H27.0116V113.826H29.3059V117.267H33.8945V114.973H31.6002ZM29.3059 106.943H24.7173V109.237H29.3059V106.943ZM24.7173 104.648H17.8344V106.943H20.1287V109.237H22.423V106.943H24.7173V104.648ZM25.8644 103.501V101.207H23.5701V98.9127H21.2758V103.501H25.8644ZM17.5476 99.1995H15.8269V100.92H17.5476V99.1995ZM17.5476 112.965H15.8269V114.686H17.5476V112.965ZM31.3134 99.1995H29.5927V100.92H31.3134V99.1995Z" fill="#82C91E"/>
</svg>
