<svg width="151" height="151" viewBox="0 0 151 151" fill="none" xmlns="http://www.w3.org/2000/svg">
<rect x="37.1715" y="4.74561" width="76.7311" height="143.615" rx="11.25" fill="#DDEDFE" stroke="#196FDE" stroke-width="1.5"/>
<circle cx="2.977" cy="2.977" r="2.227" transform="matrix(-1 0 0 1 78.5139 11.8735)" stroke="#196FDE" stroke-width="1.5"/>
<path d="M57.7891 14.5359H67.0891" stroke="#196FDE" stroke-width="1.5" stroke-linecap="round" stroke-linejoin="round"/>
<path d="M83.9847 14.5359L93.2847 14.5359" stroke="#196FDE" stroke-width="1.5" stroke-linecap="round" stroke-linejoin="round"/>
<path d="M107.472 31.5979C107.472 27.5938 104.226 24.3479 100.222 24.3479H50.8523C46.8483 24.3479 43.6024 27.5938 43.6024 31.5979V128.301C43.6024 132.305 46.8483 135.551 50.8524 135.551H100.222C104.226 135.551 107.472 132.305 107.472 128.301V31.5979Z" fill="#F9FAFB" stroke="#196FDE" stroke-width="1.5"/>
<path d="M88.0325 125.842L90.4419 127.909L94.9087 122.701" stroke="#65A30D" stroke-width="1.5"/>
<path d="M99.8831 122.7L95.4163 127.907L94.2684 126.913" stroke="#65A30D" stroke-width="1.5"/>
<path d="M50.397 112.254C50.397 103.91 57.1605 97.147 65.5037 97.147C73.8469 97.147 80.6104 103.91 80.6104 112.254V127.36H65.5037C57.1605 127.36 50.397 120.597 50.397 112.254Z" fill="#ECFCCB" stroke="#65A30D" stroke-width="1.5"/>
<circle cx="57.8155" cy="112.254" r="0.75" fill="#65A30D" stroke="#65A30D" stroke-width="1.38317"/>
<circle cx="65.5027" cy="112.254" r="0.75" fill="#65A30D" stroke="#65A30D" stroke-width="1.38317"/>
<circle cx="73.1919" cy="112.254" r="0.75" fill="#65A30D" stroke="#65A30D" stroke-width="1.38317"/>
<mask id="path-12-inside-1_535_4660" fill="white">
<path d="M104.222 99.6893C112.392 97.1131 119.376 91.706 123.916 84.4407C128.455 77.1754 130.254 68.5285 128.988 60.0555C127.721 51.5825 123.473 43.8393 117.008 38.2188C110.542 32.5983 102.283 29.4692 93.7161 29.3944C85.1493 29.3197 76.837 32.3041 70.2742 37.811C63.7114 43.3178 59.3288 50.9856 57.9148 59.4353C56.5009 67.8849 58.1482 76.5618 62.5606 83.9052C66.973 91.2487 73.8608 96.7768 81.9853 99.4952L89.4062 77.3163C86.5627 76.3649 84.1519 74.43 82.6076 71.8598C81.0633 69.2896 80.4867 66.2527 80.9816 63.2953C81.4765 60.3379 83.0104 57.6542 85.3073 55.7268C87.6043 53.7994 90.5136 52.7549 93.512 52.781C96.5104 52.8072 99.4011 53.9024 101.664 55.8696C103.927 57.8367 105.414 60.5469 105.857 63.5124C106.3 66.478 105.671 69.5044 104.082 72.0472C102.493 74.5901 100.049 76.4826 97.189 77.3842L104.222 99.6893Z"/>
</mask>
<path d="M104.222 99.6893C112.392 97.1131 119.376 91.706 123.916 84.4407C128.455 77.1754 130.254 68.5285 128.988 60.0555C127.721 51.5825 123.473 43.8393 117.008 38.2188C110.542 32.5983 102.283 29.4692 93.7161 29.3944C85.1493 29.3197 76.837 32.3041 70.2742 37.811C63.7114 43.3178 59.3288 50.9856 57.9148 59.4353C56.5009 67.8849 58.1482 76.5618 62.5606 83.9052C66.973 91.2487 73.8608 96.7768 81.9853 99.4952L89.4062 77.3163C86.5627 76.3649 84.1519 74.43 82.6076 71.8598C81.0633 69.2896 80.4867 66.2527 80.9816 63.2953C81.4765 60.3379 83.0104 57.6542 85.3073 55.7268C87.6043 53.7994 90.5136 52.7549 93.512 52.781C96.5104 52.8072 99.4011 53.9024 101.664 55.8696C103.927 57.8367 105.414 60.5469 105.857 63.5124C106.3 66.478 105.671 69.5044 104.082 72.0472C102.493 74.5901 100.049 76.4826 97.189 77.3842L104.222 99.6893Z" fill="#ECFCCB" stroke="#65A30D" stroke-width="3" mask="url(#path-12-inside-1_535_4660)"/>
</svg>
