<svg width="151" height="151" viewBox="0 0 151 151" fill="none" xmlns="http://www.w3.org/2000/svg">
<rect x="37.1714" y="4.15137" width="76.5" height="143.5" rx="11.25" fill="#DDEDFE" stroke="#196FDE" stroke-width="1.5"/>
<circle cx="3" cy="3" r="2.25" transform="matrix(-1 0 0 1 78.4214 11.2793)" stroke="#196FDE" stroke-width="1.5"/>
<path d="M57.4214 13.9622H67.4214" stroke="#196FDE" stroke-width="1.5" stroke-linecap="round" stroke-linejoin="round"/>
<path d="M83.4214 13.9622L93.4214 13.9622" stroke="#196FDE" stroke-width="1.5" stroke-linecap="round" stroke-linejoin="round"/>
<path d="M106.671 31.0037C106.671 26.9996 103.425 23.7537 99.4214 23.7537H51.4214C47.4173 23.7537 44.1714 26.9996 44.1714 31.0037V127.004C44.1714 131.008 47.4173 134.254 51.4214 134.254H99.4214C103.425 134.254 106.671 131.008 106.671 127.004V31.0037Z" fill="#F9FAFB" stroke="#196FDE" stroke-width="1.5"/>
<path fill-rule="evenodd" clip-rule="evenodd" d="M106.843 37.7537L95.9839 37.7537L71.9214 37.7537C68.8838 37.7537 66.4214 40.2161 66.4214 43.2537L66.4214 114.754C66.4214 117.791 68.8838 120.254 71.9214 120.254L120.046 120.254C123.084 120.254 125.546 117.791 125.546 114.754L125.546 56.9617L106.843 37.7537Z" fill="#ECFCCB"/>
<path d="M95.9839 37.7537V37.0037V37.7537ZM106.843 37.7537L107.381 37.2304L107.16 37.0037L106.843 37.0037V37.7537ZM71.9214 37.7537V38.5037V37.7537ZM66.4214 43.2537H65.6714H66.4214ZM66.4214 114.754H65.6714H66.4214ZM71.9214 120.254V119.504V120.254ZM120.046 120.254V121.004V120.254ZM125.546 114.754H124.796H125.546ZM125.546 56.9617H126.296V56.6568L126.084 56.4385L125.546 56.9617ZM95.9839 38.5037L106.843 38.5037V37.0037L95.9839 37.0037V38.5037ZM71.9214 38.5037L95.9839 38.5037V37.0037L71.9214 37.0037V38.5037ZM67.1714 43.2537C67.1714 40.6303 69.298 38.5037 71.9214 38.5037V37.0037C68.4696 37.0037 65.6714 39.8019 65.6714 43.2537H67.1714ZM67.1714 114.754L67.1714 43.2537H65.6714L65.6714 114.754H67.1714ZM71.9214 119.504C69.298 119.504 67.1714 117.377 67.1714 114.754H65.6714C65.6714 118.205 68.4696 121.004 71.9214 121.004V119.504ZM120.046 119.504L71.9214 119.504V121.004L120.046 121.004V119.504ZM124.796 114.754C124.796 117.377 122.67 119.504 120.046 119.504V121.004C123.498 121.004 126.296 118.205 126.296 114.754H124.796ZM124.796 56.9617L124.796 114.754H126.296L126.296 56.9617H124.796ZM126.084 56.4385L107.381 37.2304L106.306 38.2769L125.009 57.4849L126.084 56.4385Z" fill="#65A30D"/>
<path d="M125.176 56.5623L112.751 56.5623C109.714 56.5623 107.251 54.0998 107.251 51.0623L107.251 38.1542L125.176 56.5623Z" fill="#F7FEE7" stroke="#65A30D" stroke-width="1.5" stroke-linejoin="round"/>
<path d="M82.3752 67.3027H109.656" stroke="#65A30D" stroke-width="1.5" stroke-linecap="round"/>
<path d="M82.3752 74.928H97.0368" stroke="#65A30D" stroke-width="1.5" stroke-linecap="round"/>
<path d="M95.1612 91.0112C95.1612 87.9975 92.7181 85.5544 89.7044 85.5544C86.6907 85.5544 84.2476 87.9975 84.2476 91.0112V100.196C84.2476 103.21 86.6907 105.653 89.7044 105.653C92.7181 105.653 95.1612 103.21 95.1612 100.196V91.0112Z" stroke="#65A30D" stroke-width="1.5"/>
<rect x="80.714" y="95.9377" width="17.9851" height="13.5512" rx="2" fill="#A3E635" stroke="#65A30D" stroke-width="1.5"/>
</svg>
