<?xml version="1.0" encoding="UTF-8" standalone="no"?>
<svg
   xmlns:dc="http://purl.org/dc/elements/1.1/"
   xmlns:cc="http://creativecommons.org/ns#"
   xmlns:rdf="http://www.w3.org/1999/02/22-rdf-syntax-ns#"
   xmlns:svg="http://www.w3.org/2000/svg"
   xmlns="http://www.w3.org/2000/svg"
   width="360"
   height="485"
   viewBox="0 0 360 485.00001"
   id="svg11039"
   version="1.1">
  <defs
     id="defs11041" />
  <metadata
     id="metadata11044">
    <rdf:RDF>
      <cc:Work
         rdf:about="">
        <dc:format>image/svg+xml</dc:format>
        <dc:type
           rdf:resource="http://purl.org/dc/dcmitype/StillImage" />
        <dc:title></dc:title>
      </cc:Work>
    </rdf:RDF>
  </metadata>
  <path
     id="rect6081"
     d="m 0,0 360,0 0,485 -360,0 z"
     style="opacity:1;fill:#2d3e50;fill-opacity:1;stroke:none;stroke-opacity:1" />
  <path
     style="fill:#ffffff;stroke:none;stroke-opacity:1"
     d="M 344.7,185.29998 A 164.7,164.7 0 0 1 180,350 164.7,164.7 0 0 1 15.3,185.29998 a 164.7,164.7 0 0 1 164.7,-164.7 164.7,164.7 0 0 1 164.7,164.7 z"
     id="circle3492" />
  <path
     style="fill:#87c214;stroke:none;stroke-opacity:1"
     id="path3500"
     d="m 109.3,165.09998 0,119.5 c 0,9.7 7.9,17.69997 17.7,17.69997 l 8.3,0 c 9.7,0 17.7,-7.99997 17.7,-17.69997 l 0,-119.5 -43.7,0 z"
     class="st2" />
  <path
     style="fill:#87c214;stroke:none;stroke-opacity:1"
     id="path3502"
     d="m 153,107.39998 0,-22.5 c 0,-9.7 -8,-17.7 -17.7,-17.7 l -8.3,0 c -9.7,0 -17.7,8 -17.7,17.7 l 0,22.5 43.7,0 z"
     class="st2" />
  <path
     style="fill:#87c214;stroke:none;stroke-opacity:1"
     id="path3510"
     d="m 250.00001,204.39998 0,-119.5 c 0,-9.7 -7.9,-17.7 -17.7,-17.7 l -8.3,0 c -9.7,0 -17.7,8 -17.7,17.7 l 0,119.5 43.7,0 z"
     class="st2" />
  <path
     style="fill:#87c214;stroke:none;stroke-opacity:1"
     id="path3514"
     d="m 206.30001,262.09998 0,22.5 c 0,9.7 8,17.69997 17.7,17.69997 l 8.3,0 c 9.7,0 17.7,-7.99997 17.7,-17.69997 l 0,-22.5 -43.7,0 z"
     class="st2" />
  <path
     style="fill:#95d220;stroke:none;stroke-opacity:1"
     id="path3522"
     d="m 102.3,211.39998 -22.499998,0 c -9.7,0 -17.700001,7.9 -17.700001,17.7 l 0,8.3 c 0,9.7 7.900001,17.7 17.700001,17.7 l 22.499998,0 0,-43.7 z"
     class="st4" />
  <path
     style="fill:#95d220;stroke:none;stroke-opacity:1"
     id="path3526"
     d="m 279.50001,211.39998 -119.50001,0 0,43.7 119.50001,0 c 9.7,0 17.7,-8 17.7,-17.7 l 0,-8.3 c -0.1,-9.7 -8,-17.7 -17.7,-17.7 z"
     class="st4" />
  <path
     style="fill:#95d220;stroke:none;stroke-opacity:1"
     id="path3536"
     d="m 199.30001,114.39998 -119.500008,0 c -9.7,0 -17.700001,7.9 -17.700001,17.7 l 0,8.3 c 0,9.7 7.900001,17.7 17.700001,17.7 l 119.500008,0 0,-43.7 z"
     class="st4" />
  <path
     style="fill:#95d220;stroke:none;stroke-opacity:1"
     id="path3538"
     d="m 279.50001,114.39998 -22.5,0 0,43.7 22.5,0 c 9.7,0 17.7,-7.9 17.7,-17.7 l 0,-8.3 c -0.1,-9.7 -8,-17.7 -17.7,-17.7 z"
     class="st4" />
  <path
     style="fill:#ffffff;stroke:none"
     id="path5088"
     d="m 57.55709,455.79151 -35.318883,0 0,-75.26875 34.516181,0 c 15.621814,0 22.846131,9.57069 22.846131,20.2528 0,7.03908 -2.531598,11.6083 -8.459243,15.25134 l 0,0.18523 c 7.780034,3.4578 11.731797,9.87941 11.731797,18.21515 0,13.09022 -8.767974,21.36423 -25.315983,21.36423 z m -1.728896,-66.93299 -25.624715,0 0.926195,0.92619 0,22.10518 -0.926195,0.92619 25.624715,0 c 10.805602,0 14.695619,-5.37193 14.695619,-12.10228 0,-7.90352 -5.063196,-11.85528 -14.695619,-11.85528 z m 1.66715,32.35506 -27.353611,0 0.926195,0.9262 0,24.32804 -0.926195,0.92619 27.415357,0 c 11.546558,0 16.177531,-4.63097 16.177531,-13.02847 0,-8.08877 -5.124943,-13.15196 -16.239277,-13.15196 z"
     class="st5" />
  <path
     style="fill:#ffffff;stroke:none"
     id="path5090"
     d="m 159.74722,455.79151 -9.94116,0 -9.38543,-19.82056 c -3.64304,-7.7183 -9.3237,-11.23783 -19.26485,-11.23783 l -17.84469,0 0.9262,0.92619 0,30.1322 -8.829718,0 0,-75.26875 32.972518,0 c 13.76943,0 25.25424,7.34782 25.25424,22.22867 0,9.87941 -6.79209,17.16548 -15.06609,19.32659 l 0,0.18524 c 3.51953,1.48191 7.3478,4.81621 9.8794,10.06465 l 11.29958,23.4636 z m -31.36713,-66.93299 -25.069,0 0.9262,0.92619 0,25.62472 -0.9262,0.92619 24.08106,0 c 10.86735,0 17.22722,-5.68066 17.22722,-13.64593 -0.0618,-10.00291 -6.97733,-13.83117 -16.23928,-13.83117 z"
     class="st5" />
  <path
     style="fill:#ffffff;stroke:none"
     id="path5092"
     d="m 177.83889,455.79151 -8.82973,0 0,-75.26875 8.82973,0 0,75.26875 z"
     class="st5" />
  <path
     style="fill:#ffffff;stroke:none"
     id="path5094"
     d="m 263.66623,455.79151 -9.69417,0 -7.96526,-18.15341 0.49396,-0.92619 -41.18478,0 0.49397,0.92619 -7.96527,18.15341 -9.69416,0 33.096,-75.26875 9.38545,0 33.03427,75.26875 z m -21.17897,-27.41536 -0.9262,-0.92619 -13.27545,-30.19394 -2.22287,-7.53304 -0.18524,0 -2.34635,7.53304 -13.27546,30.19394 -0.92619,0.92619 33.15776,0 0,0 z"
     class="st5" />
  <path
     style="fill:#ffffff;stroke:none"
     id="path5096"
     d="m 337.76179,455.79151 -9.94115,0 -9.38543,-19.82056 c -3.64304,-7.7183 -9.3237,-11.23783 -19.26485,-11.23783 l -17.84468,0 0.9262,0.92619 0,30.1322 -8.82973,0 0,-75.26875 32.97253,0 c 13.76942,0 25.25424,7.34782 25.25424,22.22867 0,9.87941 -6.7921,17.16548 -15.0661,19.32659 l 0,0.18524 c 3.51954,1.48191 7.3478,4.81621 9.87941,10.06465 l 11.29956,23.4636 z m -31.36711,-66.93299 -25.069,0 0.9262,0.92619 0,25.62472 -0.9262,0.92619 24.08105,0 c 10.86735,0 17.16548,-5.68066 17.16548,-13.64593 0,-10.00291 -6.97733,-13.83117 -16.17753,-13.83117 z"
     class="st5" />
</svg>
