<?xml version="1.0" encoding="UTF-8" standalone="no"?>
<svg
   xmlns:dc="http://purl.org/dc/elements/1.1/"
   xmlns:cc="http://creativecommons.org/ns#"
   xmlns:rdf="http://www.w3.org/1999/02/22-rdf-syntax-ns#"
   xmlns:svg="http://www.w3.org/2000/svg"
   xmlns="http://www.w3.org/2000/svg"
   width="649.90002"
   height="235.10001"
   viewBox="0 0 649.90003 235.10001"
   id="svg8965"
   version="1.1">
  <defs
     id="defs8967" />
  <metadata
     id="metadata8970">
    <rdf:RDF>
      <cc:Work
         rdf:about="">
        <dc:format>image/svg+xml</dc:format>
        <dc:type
           rdf:resource="http://purl.org/dc/dcmitype/StillImage" />
        <dc:title></dc:title>
      </cc:Work>
    </rdf:RDF>
  </metadata>
  <path
     style="opacity:1;fill:#2d3e50;fill-opacity:1;stroke:none;stroke-opacity:1"
     d="m -23.864008,-37.121623 697.628038,0 0,309.343253 -697.628038,0 z"
     id="rect6081" />
  <path
     class="st1"
     d="m 47.2,97.8 0,119.5 c 0,9.7 7.9,17.7 17.7,17.7 l 8.3,0 c 9.7,0 17.7,-8 17.7,-17.7 l 0,-119.5 -43.7,0 z"
     id="path8283"
     style="fill:#87c214;stroke:none" />
  <path
     class="st1"
     d="m 90.8,40.2 0,-22.5 C 90.8,8 82.9,0 73.2,0 L 64.9,0 C 55.2,0 47.2,8 47.2,17.7 l 0,22.5 43.6,0 z"
     id="path8285"
     style="fill:#87c214;stroke:none" />
  <path
     class="st1"
     d="m 187.8,137.2 0,-119.5 C 187.8,8 179.9,0 170.2,0 l -8.3,0 c -9.7,0 -17.7,8 -17.7,17.7 l 0,119.5 43.6,0 z"
     id="path8293"
     style="fill:#87c214;stroke:none" />
  <path
     class="st1"
     d="m 144.2,194.8 0,22.5 c 0,9.7 8,17.7 17.7,17.7 l 8.3,0 c 9.7,0 17.7,-8 17.7,-17.7 l 0,-22.5 -43.7,0 z"
     id="path8297"
     style="fill:#87c214;stroke:none" />
  <path
     class="st3"
     d="m 40.2,144.2 -22.5,0 C 8,144.2 0,152.1 0,161.9 l 0,8.3 c 0,9.7 7.9,17.7 17.7,17.7 l 22.5,0 0,-43.7 z"
     id="path8305"
     style="fill:#95d220;stroke:none" />
  <path
     class="st3"
     d="m 217.3,144.2 -119.5,0 0,43.7 119.5,0 c 9.7,0 17.7,-8 17.7,-17.7 l 0,-8.3 c 0,-9.8 -8,-17.7 -17.7,-17.7 z"
     id="path8309"
     style="fill:#95d220;stroke:none" />
  <path
     class="st3"
     d="m 137.2,47.2 -119.5,0 C 7.9,47.2 0,55.1 0,64.8 l 0,8.3 c 0,9.7 7.9,17.7 17.7,17.7 l 119.5,0 0,-43.6 z"
     id="path8319"
     style="fill:#95d220;stroke:none" />
  <path
     class="st3"
     d="m 217.3,47.2 -22.5,0 0,43.7 22.5,0 C 227,90.9 235,83 235,73.2 l 0,-8.3 c 0,-9.8 -8,-17.7 -17.7,-17.7 z"
     id="path8321"
     style="fill:#95d220;stroke:none" />
  <path
     class="st5"
     d="m 311.6,235.1 -42.7,0 0,-90.9 41.7,0 c 18.9,0 27.6,11.6 27.6,24.5 0,8.5 -3.1,14 -10.2,18.4 l 0,0.2 c 9.4,4.2 14.2,11.9 14.2,22 -0.1,15.8 -10.7,25.8 -30.6,25.8 z m -2.1,-80.8 -30.9,0 1.1,1.1 0,26.7 -1.1,1.1 30.9,0 c 13,0 17.7,-6.5 17.7,-14.6 0,-9.6 -6.1,-14.3 -17.7,-14.3 z m 2,39 -33,0 1.1,1.1 0,29.4 -1.1,1.1 33.1,0 c 13.9,0 19.5,-5.6 19.5,-15.7 0,-9.7 -6.2,-15.9 -19.6,-15.9 z"
     id="path8327"
     style="fill:#ffffff;stroke:none" />
  <path
     class="st5"
     d="m 435,235.1 -12,0 -11.3,-23.9 c -4.4,-9.3 -11.3,-13.6 -23.3,-13.6 l -21.6,0 1.1,1.1 0,36.4 -10.7,0 0,-90.9 39.8,0 c 16.6,0 30.5,8.9 30.5,26.8 0,11.9 -8.2,20.7 -18.2,23.3 l 0,0.2 c 4.3,1.8 8.9,5.8 11.9,12.2 l 13.8,28.4 z m -37.9,-80.8 -30.3,0 1.1,1.1 0,30.9 -1.1,1.1 29.1,0 c 13.1,0 20.8,-6.9 20.8,-16.5 -0.1,-12 -8.4,-16.6 -19.6,-16.6 z"
     id="path8329"
     style="fill:#ffffff;stroke:none" />
  <path
     class="st5"
     d="m 456.8,235.1 -10.7,0 0,-90.9 10.7,0 0,90.9 z"
     id="path8331"
     style="fill:#ffffff;stroke:none" />
  <path
     class="st5"
     d="m 560.5,235.1 -11.7,0 -9.6,-21.9 0.6,-1.1 -49.8,0 0.6,1.1 -9.6,21.9 -11.7,0 40,-90.9 11.3,0 39.9,90.9 z m -25.6,-33.1 -1.1,-1.1 -16,-36.5 -2.7,-9.1 -0.2,0 -2.8,9.1 -16,36.5 -1.1,1.1 39.9,0 0,0 z"
     id="path8333"
     style="fill:#ffffff;stroke:none" />
  <path
     class="st5"
     d="m 649.9,235.1 -12,0 -11.3,-23.9 c -4.4,-9.3 -11.3,-13.6 -23.3,-13.6 l -21.6,0 1.1,1.1 0,36.4 -10.7,0 0,-90.9 39.8,0 c 16.6,0 30.5,8.9 30.5,26.8 0,11.9 -8.2,20.7 -18.2,23.3 l 0,0.2 c 4.3,1.8 8.9,5.8 11.9,12.2 l 13.8,28.4 z m -37.8,-80.8 -30.3,0 1.1,1.1 0,30.9 -1.1,1.1 29.1,0 c 13.1,0 20.7,-6.9 20.7,-16.5 0,-12 -8.4,-16.6 -19.5,-16.6 z"
     id="path8335"
     style="fill:#ffffff;stroke:none" />
</svg>
