<?xml version="1.0" encoding="UTF-8" standalone="no"?>
<svg
   xmlns:dc="http://purl.org/dc/elements/1.1/"
   xmlns:cc="http://creativecommons.org/ns#"
   xmlns:rdf="http://www.w3.org/1999/02/22-rdf-syntax-ns#"
   xmlns:svg="http://www.w3.org/2000/svg"
   xmlns="http://www.w3.org/2000/svg"
   width="940"
   height="369.40005"
   viewBox="0 0 940.00002 369.40002"
   id="svg5917"
   version="1.1">
  <defs
     id="defs5919" />
  <metadata
     id="metadata5922">
    <rdf:RDF>
      <cc:Work
         rdf:about="">
        <dc:format>image/svg+xml</dc:format>
        <dc:type
           rdf:resource="http://purl.org/dc/dcmitype/StillImage" />
        <dc:title></dc:title>
      </cc:Work>
    </rdf:RDF>
  </metadata>
  <path
     id="rect6081"
     d="m 0,3e-5 940,0 0,369.40002 -940,0 z"
     style="opacity:1;fill:#2d3e50;fill-opacity:1;stroke:none;stroke-opacity:1" />
  <path
     style="fill:#ffffff;stroke:none;stroke-opacity:1"
     d="M 349.39999,184.69998 A 164.7,164.7 0 0 1 184.7,349.39995 164.7,164.7 0 0 1 20,184.69998 a 164.7,164.7 0 0 1 164.7,-164.7 164.7,164.7 0 0 1 164.69999,164.7 z"
     id="circle3492" />
  <path
     style="fill:#ffffff;stroke:none"
     id="path5088"
     d="m 451.2,245.65004 -57.2,0 0,-121.9 55.9,0 c 25.3,0 37,15.5 37,32.8 0,11.4 -4.1,18.8 -13.7,24.7 l 0,0.3 c 12.6,5.6 19,16 19,29.5 0,21.2 -14.2,34.6 -41,34.6 z m -2.8,-108.4 -41.5,0 1.5,1.5 0,35.8 -1.5,1.5 41.5,0 c 17.5,0 23.8,-8.7 23.8,-19.6 0,-12.8 -8.2,-19.2 -23.8,-19.2 z m 2.7,52.4 -44.3,0 1.5,1.5 0,39.4 -1.5,1.5 44.4,0 c 18.7,0 26.2,-7.5 26.2,-21.1 0,-13.1 -8.3,-21.3 -26.3,-21.3 z"
     class="st5" />
  <path
     style="fill:#ffffff;stroke:none"
     id="path5090"
     d="m 616.7,245.65004 -16.1,0 -15.2,-32.1 c -5.9,-12.5 -15.1,-18.2 -31.2,-18.2 l -28.9,0 1.5,1.5 0,48.8 -14.3,0 0,-121.9 53.4,0 c 22.3,0 40.9,11.9 40.9,36 0,16 -11,27.8 -24.4,31.3 l 0,0.3 c 5.7,2.4 11.9,7.8 16,16.3 l 18.3,38 z m -50.8,-108.4 -40.6,0 1.5,1.5 0,41.5 -1.5,1.5 39,0 c 17.6,0 27.9,-9.2 27.9,-22.1 -0.1,-16.2 -11.3,-22.4 -26.3,-22.4 z"
     class="st5" />
  <path
     style="fill:#ffffff;stroke:none"
     id="path5092"
     d="m 646,245.65004 -14.3,0 0,-121.9 14.3,0 0,121.9 z"
     class="st5" />
  <path
     style="fill:#ffffff;stroke:none"
     id="path5094"
     d="m 785,245.65004 -15.7,0 -12.9,-29.4 0.8,-1.5 -66.7,0 0.8,1.5 -12.9,29.4 -15.7,0 53.6,-121.9 15.2,0 53.5,121.9 z m -34.3,-44.4 -1.5,-1.5 -21.5,-48.9 -3.6,-12.2 -0.3,0 -3.8,12.2 -21.5,48.9 -1.5,1.5 53.7,0 0,0 z"
     class="st5" />
  <path
     style="fill:#ffffff;stroke:none"
     id="path5096"
     d="m 905,245.65004 -16.1,0 -15.2,-32.1 c -5.9,-12.5 -15.1,-18.2 -31.2,-18.2 l -28.9,0 1.5,1.5 0,48.8 -14.3,0 0,-121.9 53.4,0 c 22.3,0 40.9,11.9 40.9,36 0,16 -11,27.8 -24.4,31.3 l 0,0.3 c 5.7,2.4 11.9,7.8 16,16.3 l 18.3,38 z m -50.8,-108.4 -40.6,0 1.5,1.5 0,41.5 -1.5,1.5 39,0 c 17.6,0 27.8,-9.2 27.8,-22.1 0,-16.2 -11.3,-22.4 -26.2,-22.4 z"
     class="st5" />
  <path
     style="fill:#87c214;stroke:none;stroke-opacity:1"
     id="path3500"
     d="m 114,164.49998 0,119.5 c 0,9.7 7.9,17.69997 17.7,17.69997 l 8.3,0 c 9.7,0 17.7,-7.99997 17.7,-17.69997 l 0,-119.5 -43.7,0 z"
     class="st2" />
  <path
     style="fill:#87c214;stroke:none;stroke-opacity:1"
     id="path3502"
     d="m 157.7,106.79998 0,-22.5 c 0,-9.7 -8,-17.7 -17.7,-17.7 l -8.3,0 c -9.7,0 -17.7,8 -17.7,17.7 l 0,22.5 43.7,0 z"
     class="st2" />
  <path
     style="fill:#87c214;stroke:none;stroke-opacity:1"
     id="path3510"
     d="m 254.7,203.79998 0,-119.5 c 0,-9.7 -7.9,-17.7 -17.7,-17.7 l -8.3,0 c -9.7,0 -17.7,8 -17.7,17.7 l 0,119.5 43.7,0 z"
     class="st2" />
  <path
     style="fill:#87c214;stroke:none;stroke-opacity:1"
     id="path3514"
     d="m 211,261.49998 0,22.5 c 0,9.7 8,17.69997 17.7,17.69997 l 8.3,0 c 9.7,0 17.7,-7.99997 17.7,-17.69997 l 0,-22.5 -43.7,0 z"
     class="st2" />
  <path
     style="fill:#95d220;stroke:none;stroke-opacity:1"
     id="path3522"
     d="m 107,210.79998 -22.5,0 c -9.7,0 -17.7,7.9 -17.7,17.7 l 0,8.3 c 0,9.7 7.9,17.7 17.7,17.7 l 22.5,0 0,-43.7 z"
     class="st4" />
  <path
     style="fill:#95d220;stroke:none;stroke-opacity:1"
     id="path3526"
     d="m 284.2,210.79998 -119.5,0 0,43.7 119.5,0 c 9.7,0 17.7,-8 17.7,-17.7 l 0,-8.3 c -0.1,-9.7 -8,-17.7 -17.7,-17.7 z"
     class="st4" />
  <path
     style="fill:#95d220;stroke:none;stroke-opacity:1"
     id="path3536"
     d="m 204,113.79998 -119.5,0 c -9.7,0 -17.7,7.9 -17.7,17.7 l 0,8.3 c 0,9.7 7.9,17.7 17.7,17.7 l 119.5,0 0,-43.7 z"
     class="st4" />
  <path
     style="fill:#95d220;stroke:none;stroke-opacity:1"
     id="path3538"
     d="m 284.2,113.79998 -22.5,0 0,43.7 22.5,0 c 9.7,0 17.7,-7.9 17.7,-17.7 l 0,-8.3 c -0.1,-9.7 -8,-17.7 -17.7,-17.7 z"
     class="st4" />
</svg>
