<?xml version="1.0" encoding="UTF-8" standalone="no"?>
<svg
   xmlns:dc="http://purl.org/dc/elements/1.1/"
   xmlns:cc="http://creativecommons.org/ns#"
   xmlns:rdf="http://www.w3.org/1999/02/22-rdf-syntax-ns#"
   xmlns:svg="http://www.w3.org/2000/svg"
   xmlns="http://www.w3.org/2000/svg"
   version="1.1"
   id="svg4398"
   viewBox="0 0 235.5 309.70002"
   height="309.70001"
   width="235.5">
  <defs
     id="defs4400" />
  <metadata
     id="metadata4403">
    <rdf:RDF>
      <cc:Work
         rdf:about="">
        <dc:format>image/svg+xml</dc:format>
        <dc:type
           rdf:resource="http://purl.org/dc/dcmitype/StillImage" />
        <dc:title></dc:title>
      </cc:Work>
    </rdf:RDF>
  </metadata>
  <g
     transform="translate(574.89286,-154.65506)"
     id="layer1">
    <path
       class="st1"
       d="m -527.19286,252.45506 0,119.5 c 0,9.7 7.9,17.7 17.7,17.7 l 8.3,0 c 9.7,0 17.7,-8 17.7,-17.7 l 0,-119.5 -43.7,0 z"
       id="path3456"
       style="fill:#87c214;fill-opacity:1;stroke:none" />
    <path
       class="st1"
       d="m -483.59286,194.85506 0,-22.5 c 0,-9.7 -7.9,-17.7 -17.6,-17.7 l -8.3,0 c -9.7,0 -17.7,8 -17.7,17.7 l 0,22.5 43.6,0 z"
       id="path3458"
       style="fill:#87c214;fill-opacity:1;stroke:none" />
    <path
       class="st1"
       d="m -386.59286,291.85506 0,-119.5 c 0,-9.7 -7.9,-17.7 -17.6,-17.7 l -8.3,0 c -9.7,0 -17.7,8 -17.7,17.7 l 0,119.5 43.6,0 z"
       id="path3466"
       style="fill:#87c214;fill-opacity:1;stroke:none" />
    <path
       class="st1"
       d="m -430.19286,349.45506 0,22.5 c 0,9.7 8,17.7 17.7,17.7 l 8.3,0 c 9.7,0 17.7,-8 17.7,-17.7 l 0,-22.5 -43.7,0 z"
       id="path3470"
       style="fill:#87c214;fill-opacity:1;stroke:none" />
    <path
       class="st3"
       d="m -534.19286,298.85506 -22.5,0 c -9.7,0 -17.7,7.9 -17.7,17.7 l 0,8.3 c 0,9.7 7.9,17.7 17.7,17.7 l 22.5,0 0,-43.7 z"
       id="path3478"
       style="fill:#95d220;fill-opacity:1;stroke:none" />
    <path
       class="st3"
       d="m -357.09286,298.85506 -119.5,0 0,43.7 119.5,0 c 9.7,0 17.7,-8 17.7,-17.7 l 0,-8.3 c 0,-9.8 -8,-17.7 -17.7,-17.7 z"
       id="path3482"
       style="fill:#95d220;fill-opacity:1;stroke:none" />
    <path
       class="st3"
       d="m -437.19286,201.85506 -119.5,0 c -9.7,0 -17.7,7.9 -17.7,17.7 l 0,8.3 c 0,9.7 7.9,17.7 17.7,17.7 l 119.5,0 0,-43.7 z"
       id="path3492"
       style="fill:#95d220;fill-opacity:1;stroke:none" />
    <path
       class="st3"
       d="m -357.09286,201.85506 -22.5,0 0,43.7 22.5,0 c 9.7,0 17.7,-7.9 17.7,-17.7 l 0,-8.3 c 0,-9.8 -8,-17.7 -17.7,-17.7 z"
       id="path3494"
       style="fill:#95d220;fill-opacity:1;stroke:none" />
    <path
       style="fill:#000000;fill-opacity:1;stroke:none"
       d="m -548.59286,464.35506 -26.3,0 0,-56.1 25.7,0 c 11.6,0 17.1,7.1 17.1,15.1 0,5.3 -1.9,8.7 -6.3,11.4 l 0,0.1 c 5.8,2.6 8.7,7.3 8.7,13.6 0,9.7 -6.5,15.9 -18.9,15.9 z m -1.3,-49.9 -19.1,0 0.7,0.7 0,16.5 -0.7,0.7 19.1,0 c 8,0 11,-4 11,-9 0,-6 -3.8,-8.9 -11,-8.9 z m 1.3,24.1 -20.4,0 0.7,0.7 0,18.2 -0.7,0.7 20.4,0 c 8.6,0 12.1,-3.5 12.1,-9.7 0,-6.1 -3.8,-9.9 -12.1,-9.9 z"
       id="path3500" />
    <path
       style="fill:#000000;fill-opacity:1;stroke:none"
       d="m -472.39286,464.35506 -7.4,0 -7,-14.8 c -2.7,-5.8 -6.9,-8.4 -14.3,-8.4 l -13.3,0 0.7,0.7 0,22.5 -6.6,0 0,-56.1 24.6,0 c 10.3,0 18.9,5.5 18.9,16.6 0,7.3 -5.1,12.8 -11.2,14.4 l 0,0.1 c 2.6,1.1 5.5,3.6 7.3,7.5 l 8.3,17.5 z m -23.3,-49.9 -18.7,0 0.7,0.7 0,19.1 -0.7,0.7 18,0 c 8.1,0 12.8,-4.2 12.8,-10.2 -0.1,-7.5 -5.3,-10.3 -12.1,-10.3 z"
       id="path3502" />
    <path
       style="fill:#000000;fill-opacity:1;stroke:none"
       d="m -458.89286,464.35506 -6.6,0 0,-56.1 6.6,0 0,56.1 z"
       id="path3504" />
    <path
       style="fill:#000000;fill-opacity:1;stroke:none"
       d="m -394.89286,464.35506 -7.2,0 -6,-13.5 0.3,-0.7 -30.7,0 0.3,0.7 -6,13.5 -7.2,0 24.7,-56.1 7,0 24.8,56.1 z m -15.8,-20.4 -0.7,-0.7 -9.9,-22.5 -1.7,-5.6 -0.1,0 -1.7,5.6 -9.9,22.5 -0.7,0.7 24.7,0 z"
       id="path3506" />
    <path
       style="fill:#000000;fill-opacity:1;stroke:none"
       d="m -339.59286,464.35506 -7.4,0 -7,-14.8 c -2.7,-5.8 -6.9,-8.4 -14.3,-8.4 l -13.3,0 0.7,0.7 0,22.5 -6.6,0 0,-56.1 24.6,0 c 10.3,0 18.9,5.5 18.9,16.6 0,7.3 -5.1,12.8 -11.2,14.4 l 0,0.1 c 2.6,1.1 5.5,3.6 7.3,7.5 l 8.3,17.5 z m -23.4,-49.9 -18.7,0 0.7,0.7 0,19.1 -0.7,0.7 18,0 c 8.1,0 12.8,-4.2 12.8,-10.2 0,-7.5 -5.2,-10.3 -12.1,-10.3 z"
       id="path3508" />
  </g>
</svg>
