<?xml version="1.0" encoding="UTF-8" standalone="no"?>
<svg
   xmlns:dc="http://purl.org/dc/elements/1.1/"
   xmlns:cc="http://creativecommons.org/ns#"
   xmlns:rdf="http://www.w3.org/1999/02/22-rdf-syntax-ns#"
   xmlns:svg="http://www.w3.org/2000/svg"
   xmlns="http://www.w3.org/2000/svg"
   version="1.1"
   id="svg7432"
   viewBox="0 0 391.60001 391.60001"
   height="391.60001"
   width="391.60001">
  <defs
     id="defs7434" />
  <metadata
     id="metadata7437">
    <rdf:RDF>
      <cc:Work
         rdf:about="">
        <dc:format>image/svg+xml</dc:format>
        <dc:type
           rdf:resource="http://purl.org/dc/dcmitype/StillImage" />
        <dc:title></dc:title>
      </cc:Work>
    </rdf:RDF>
  </metadata>
  <g
     transform="translate(0,-660.66219)"
     id="layer1">
    <path
       id="circle6760"
       d="M 391.60001,856.46219 A 195.8,195.8 0 0 1 195.8,1052.2622 195.8,195.8 0 0 1 0,856.46219 a 195.8,195.8 0 0 1 195.8,-195.8 195.8,195.8 0 0 1 195.80001,195.8 z"
       style="fill:#ffffff;stroke:none" />
    <path
       class="st2"
       d="m 124.9,836.76219 0,119.5 c 0,9.7 7.9,17.7 17.7,17.7 l 8.3,0 c 9.7,0 17.7,-8 17.7,-17.7 l 0,-119.5 -43.7,0 z"
       id="path6770"
       style="fill:#87c214;stroke:none" />
    <path
       class="st2"
       d="m 168.6,779.06219 0,-22.5 c 0,-9.7 -8,-17.7 -17.7,-17.7 l -8.3,0 c -9.7,0 -17.7,8 -17.7,17.7 l 0,22.5 43.7,0 z"
       id="path6772"
       style="fill:#87c214;stroke:none" />
    <path
       class="st2"
       d="m 265.6,876.06219 0,-119.5 c 0,-9.7 -7.9,-17.7 -17.7,-17.7 l -8.3,0 c -9.7,0 -17.7,8 -17.7,17.7 l 0,119.5 43.7,0 z"
       id="path6780"
       style="fill:#87c214;stroke:none" />
    <path
       class="st2"
       d="m 221.9,933.76219 0,22.5 c 0,9.7 8,17.7 17.7,17.7 l 8.3,0 c 9.7,0 17.7,-8 17.7,-17.7 l 0,-22.5 -43.7,0 z"
       id="path6784"
       style="fill:#87c214;stroke:none" />
    <path
       class="st4"
       d="m 117.9,883.06219 -22.5,0 c -9.7,0 -17.7,7.9 -17.7,17.7 l 0,8.3 c 0,9.7 7.9,17.7 17.7,17.7 l 22.5,0 0,-43.7 z"
       id="path6792"
       style="fill:#95d220;stroke:none" />
    <path
       class="st4"
       d="m 295.1,883.06219 -119.5,0 0,43.7 119.5,0 c 9.7,0 17.7,-8 17.7,-17.7 l 0,-8.3 c -0.1,-9.7 -8,-17.7 -17.7,-17.7 z"
       id="path6796"
       style="fill:#95d220;stroke:none" />
    <path
       class="st4"
       d="m 214.9,786.06219 -119.5,0 c -9.7,0 -17.7,7.9 -17.7,17.7 l 0,8.3 c 0,9.7 7.9,17.7 17.7,17.7 l 119.5,0 0,-43.7 z"
       id="path6806"
       style="fill:#95d220;stroke:none" />
    <path
       class="st4"
       d="m 295.1,786.06219 -22.5,0 0,43.7 22.5,0 c 9.7,0 17.7,-7.9 17.7,-17.7 l 0,-8.3 c -0.1,-9.7 -8,-17.7 -17.7,-17.7 z"
       id="path6808"
       style="fill:#95d220;stroke:none" />
  </g>
</svg>
