<?xml version="1.0" encoding="UTF-8" standalone="no"?>
<svg
   xmlns:dc="http://purl.org/dc/elements/1.1/"
   xmlns:cc="http://creativecommons.org/ns#"
   xmlns:rdf="http://www.w3.org/1999/02/22-rdf-syntax-ns#"
   xmlns:svg="http://www.w3.org/2000/svg"
   xmlns="http://www.w3.org/2000/svg"
   version="1.1"
   id="svg6069"
   viewBox="0 0 329.4 329.4"
   height="329.39999"
   width="329.39999">
  <defs
     id="defs6071" />
  <metadata
     id="metadata6074">
    <rdf:RDF>
      <cc:Work
         rdf:about="">
        <dc:format>image/svg+xml</dc:format>
        <dc:type
           rdf:resource="http://purl.org/dc/dcmitype/StillImage" />
        <dc:title></dc:title>
      </cc:Work>
    </rdf:RDF>
  </metadata>
  <g
     transform="translate(0,-723.06221)"
     id="layer1">
    <path
       id="circle5398"
       d="M 329.39999,887.76221 A 164.7,164.7 0 0 1 164.7,1052.4622 164.7,164.7 0 0 1 0,887.76221 a 164.7,164.7 0 0 1 164.7,-164.7 164.7,164.7 0 0 1 164.69999,164.7 z"
       style="fill:#ffffff;stroke:none" />
    <path
       class="st2"
       d="m 94,867.56221 0,119.5 c 0,9.7 7.9,17.69999 17.7,17.69999 l 8.3,0 c 9.7,0 17.7,-7.99999 17.7,-17.69999 l 0,-119.5 -43.7,0 z"
       id="path5406"
       style="fill:#87c214;stroke:none" />
    <path
       class="st2"
       d="m 137.7,809.86221 0,-22.5 c 0,-9.7 -8,-17.7 -17.7,-17.7 l -8.3,0 c -9.7,0 -17.7,8 -17.7,17.7 l 0,22.5 43.7,0 z"
       id="path5408"
       style="fill:#87c214;stroke:none" />
    <path
       class="st2"
       d="m 234.7,906.86221 0,-119.5 c 0,-9.7 -7.9,-17.7 -17.7,-17.7 l -8.3,0 c -9.7,0 -17.7,8 -17.7,17.7 l 0,119.5 43.7,0 z"
       id="path5416"
       style="fill:#87c214;stroke:none" />
    <path
       class="st2"
       d="m 191,964.56221 0,22.5 c 0,9.7 8,17.69999 17.7,17.69999 l 8.3,0 c 9.7,0 17.7,-7.99999 17.7,-17.69999 l 0,-22.5 -43.7,0 z"
       id="path5420"
       style="fill:#87c214;stroke:none" />
    <path
       class="st4"
       d="m 87,913.86221 -22.5,0 c -9.7,0 -17.7,7.9 -17.7,17.7 l 0,8.3 c 0,9.7 7.9,17.7 17.7,17.7 l 22.5,0 0,-43.7 z"
       id="path5428"
       style="fill:#95d220;stroke:none" />
    <path
       class="st4"
       d="m 264.2,913.86221 -119.5,0 0,43.7 119.5,0 c 9.7,0 17.7,-8 17.7,-17.7 l 0,-8.3 c -0.1,-9.7 -8,-17.7 -17.7,-17.7 z"
       id="path5432"
       style="fill:#95d220;stroke:none" />
    <path
       class="st4"
       d="m 184,816.86221 -119.5,0 c -9.7,0 -17.7,7.9 -17.7,17.7 l 0,8.3 c 0,9.7 7.9,17.7 17.7,17.7 l 119.5,0 0,-43.7 z"
       id="path5442"
       style="fill:#95d220;stroke:none" />
    <path
       class="st4"
       d="m 264.2,816.86221 -22.5,0 0,43.7 22.5,0 c 9.7,0 17.7,-7.9 17.7,-17.7 l 0,-8.3 c -0.1,-9.7 -8,-17.7 -17.7,-17.7 z"
       id="path5444"
       style="fill:#95d220;stroke:none" />
  </g>
</svg>
